<?xml version="1.0" encoding="UTF-8" standalone="no"?>
<!-- Created with Inkscape (http://www.inkscape.org/) -->

<svg
   inkscape:export-ydpi="72"
   inkscape:export-xdpi="72"
   inkscape:export-filename="net.codelogistics.letters.png"
   width="128"
   height="128"
   id="svg11300"
   sodipodi:version="0.32"
   inkscape:version="1.4 (e7c3feb100, 2024-10-09)"
   sodipodi:docname="net.codelogistics.letters-symbolic.svg"
   inkscape:output_extension="org.inkscape.output.svg.inkscape"
   version="1.0"
   style="display:inline;enable-background:new"
   viewBox="0 0 128 128"
   xmlns:inkscape="http://www.inkscape.org/namespaces/inkscape"
   xmlns:sodipodi="http://sodipodi.sourceforge.net/DTD/sodipodi-0.dtd"
   xmlns:xlink="http://www.w3.org/1999/xlink"
   xmlns="http://www.w3.org/2000/svg"
   xmlns:svg="http://www.w3.org/2000/svg"
   xmlns:rdf="http://www.w3.org/1999/02/22-rdf-syntax-ns#"
   xmlns:cc="http://creativecommons.org/ns#"
   xmlns:dc="http://purl.org/dc/elements/1.1/">
  <title
     id="title4162">Adwaita Icon Template</title>
  <defs
     id="defs3">
    <linearGradient
       y2="236"
       x2="96"
       y1="236"
       x1="32"
       gradientTransform="translate(604.81684,170.58641)"
       gradientUnits="userSpaceOnUse"
       id="linearGradient1099"
       xlink:href="#linearGradient1036" />
    <linearGradient
       id="linearGradient1036">
      <stop
         id="stop1032"
         offset="0"
         style="stop-color:#d5d3cf;stop-opacity:1;" />
      <stop
         id="stop1034"
         offset="1"
         style="stop-color:#f6f5f4;stop-opacity:1" />
    </linearGradient>
    <radialGradient
       r="32"
       fy="-76"
       fx="-244"
       cy="-76"
       cx="-244"
       gradientTransform="matrix(0.88333331,0,0,0.88333331,-460.35018,463.11973)"
       gradientUnits="userSpaceOnUse"
       id="radialGradient1103"
       xlink:href="#linearGradient1069" />
    <linearGradient
       id="linearGradient1069">
      <stop
         id="stop1065"
         offset="0"
         style="stop-color:#d5d3cf;stop-opacity:1" />
      <stop
         id="stop1067-1"
         offset="1"
         style="stop-color:#949390;stop-opacity:1" />
    </linearGradient>
    <linearGradient
       gradientUnits="userSpaceOnUse"
       y2="232"
       x2="64"
       y1="262.5"
       x1="64"
       id="linearGradient1027"
       xlink:href="#linearGradient1025"
       gradientTransform="translate(-470.5864,432.81685)" />
    <linearGradient
       id="linearGradient1025">
      <stop
         id="stop1021"
         offset="0"
         style="stop-color:#9a9996;stop-opacity:1" />
      <stop
         id="stop1023"
         offset="1"
         style="stop-color:#77767b;stop-opacity:1" />
    </linearGradient>
    <inkscape:path-effect
       effect="spiro"
       id="path-effect35304-9"
       is_visible="true" />
    <clipPath
       clipPathUnits="userSpaceOnUse"
       id="clipPath1609-7">
      <path
         sodipodi:nodetypes="cccccc"
         inkscape:connector-curvature="0"
         id="path1611-5"
         d="m 252,116 28,-28 v -8 h -36 v 36 z"
         style="fill:#e74747;stroke:none;stroke-width:0.25px;stroke-linecap:butt;stroke-linejoin:miter;stroke-opacity:1" />
    </clipPath>
  </defs>
  <sodipodi:namedview
     stroke="#ef2929"
     fill="#f57900"
     id="base"
     pagecolor="#ffffff"
     bordercolor="#666666"
     borderopacity="0.25490196"
     inkscape:pageopacity="0.0"
     inkscape:pageshadow="2"
     inkscape:zoom="6.154039"
     inkscape:cx="19.824379"
     inkscape:cy="92.134613"
     inkscape:current-layer="layer1"
     showgrid="false"
     inkscape:grid-bbox="true"
     inkscape:document-units="px"
     inkscape:showpageshadow="false"
     inkscape:window-width="1920"
     inkscape:window-height="1011"
     inkscape:window-x="0"
     inkscape:window-y="0"
     width="400px"
     height="300px"
     inkscape:snap-nodes="true"
     inkscape:snap-bbox="true"
     objecttolerance="7"
     gridtolerance="12"
     guidetolerance="13"
     inkscape:window-maximized="1"
     inkscape:pagecheckerboard="false"
     showguides="false"
     inkscape:guide-bbox="true"
     inkscape:locked="false"
     inkscape:measure-start="0,0"
     inkscape:measure-end="0,0"
     inkscape:object-nodes="true"
     inkscape:bbox-nodes="true"
     inkscape:snap-global="true"
     inkscape:object-paths="true"
     inkscape:snap-intersection-paths="true"
     inkscape:snap-bbox-edge-midpoints="true"
     inkscape:snap-bbox-midpoints="true"
     showborder="false"
     inkscape:snap-center="true"
     inkscape:snap-object-midpoints="true"
     inkscape:snap-midpoints="true"
     inkscape:snap-smooth-nodes="true"
     inkscape:snap-text-baseline="true"
     inkscape:deskcolor="#d1d1d1">
    <inkscape:grid
       type="xygrid"
       id="grid5883"
       spacingx="2"
       spacingy="2"
       enabled="true"
       visible="true"
       empspacing="4"
       originx="0"
       originy="0"
       units="px" />
    <sodipodi:guide
       position="64,8"
       orientation="0,1"
       id="guide1073"
       inkscape:locked="false"
       inkscape:label=""
       inkscape:color="rgb(0,0,255)" />
    <sodipodi:guide
       position="12,64"
       orientation="1,0"
       id="guide1075"
       inkscape:locked="false"
       inkscape:label=""
       inkscape:color="rgb(0,0,255)" />
    <sodipodi:guide
       position="64,104"
       orientation="0,1"
       id="guide1099"
       inkscape:locked="false"
       inkscape:label=""
       inkscape:color="rgb(0,0,255)" />
    <sodipodi:guide
       position="64,128"
       orientation="0,1"
       id="guide993"
       inkscape:locked="false"
       inkscape:label=""
       inkscape:color="rgb(0,0,255)" />
    <sodipodi:guide
       position="104,64"
       orientation="1,0"
       id="guide995"
       inkscape:locked="false"
       inkscape:label=""
       inkscape:color="rgb(0,0,255)" />
    <sodipodi:guide
       position="9.2651362e-08,64"
       orientation="1,0"
       id="guide867"
       inkscape:locked="false"
       inkscape:label=""
       inkscape:color="rgb(0,0,255)" />
    <sodipodi:guide
       position="120,64"
       orientation="1,0"
       id="guide869"
       inkscape:locked="false"
       inkscape:label=""
       inkscape:color="rgb(0,0,255)" />
    <sodipodi:guide
       position="64,116"
       orientation="0,1"
       id="guide871"
       inkscape:locked="false"
       inkscape:label=""
       inkscape:color="rgb(0,0,255)" />
    <inkscape:grid
       type="xygrid"
       id="grid873"
       spacingx="1"
       spacingy="1"
       empspacing="8"
       color="#000000"
       opacity="0.49019608"
       empcolor="#000000"
       empopacity="0.08627451"
       dotted="true"
       originx="0"
       originy="0"
       units="px" />
    <sodipodi:guide
       position="24,64"
       orientation="1,0"
       id="guide877"
       inkscape:locked="false"
       inkscape:label=""
       inkscape:color="rgb(0,0,255)" />
    <sodipodi:guide
       position="116,64"
       orientation="1,0"
       id="guide879"
       inkscape:locked="false"
       inkscape:label=""
       inkscape:color="rgb(0,0,255)" />
    <sodipodi:guide
       position="64,120"
       orientation="0,1"
       id="guide881"
       inkscape:locked="false"
       inkscape:label=""
       inkscape:color="rgb(0,0,255)" />
    <sodipodi:guide
       position="64,12"
       orientation="0,1"
       id="guide883"
       inkscape:locked="false"
       inkscape:label=""
       inkscape:color="rgb(0,0,255)" />
    <sodipodi:guide
       position="8,64"
       orientation="1,0"
       id="guide885"
       inkscape:locked="false"
       inkscape:label=""
       inkscape:color="rgb(0,0,255)" />
    <sodipodi:guide
       position="128,64"
       orientation="1,0"
       id="guide887"
       inkscape:locked="false"
       inkscape:label=""
       inkscape:color="rgb(0,0,255)" />
    <sodipodi:guide
       position="64,0"
       orientation="0,1"
       id="guide897"
       inkscape:locked="false"
       inkscape:label=""
       inkscape:color="rgb(0,0,255)" />
    <sodipodi:guide
       position="64,24"
       orientation="0,1"
       id="guide899"
       inkscape:locked="false"
       inkscape:label=""
       inkscape:color="rgb(0,0,255)" />
    <sodipodi:guide
       position="256,256"
       orientation="-0.70710678,0.70710678"
       id="guide950"
       inkscape:locked="false"
       inkscape:label=""
       inkscape:color="rgb(0,0,255)" />
    <sodipodi:guide
       position="64,64"
       orientation="0.70710678,0.70710678"
       id="guide952"
       inkscape:locked="false"
       inkscape:label=""
       inkscape:color="rgb(0,0,255)" />
  </sodipodi:namedview>
  <metadata
     id="metadata4">
    <rdf:RDF>
      <cc:Work
         rdf:about="">
        <dc:format>image/svg+xml</dc:format>
        <dc:type
           rdf:resource="http://purl.org/dc/dcmitype/StillImage" />
        <dc:creator>
          <cc:Agent>
            <dc:title>GNOME Design Team</dc:title>
          </cc:Agent>
        </dc:creator>
        <dc:source />
        <cc:license
           rdf:resource="http://creativecommons.org/licenses/by-sa/4.0/" />
        <dc:title>Adwaita Icon Template</dc:title>
        <dc:subject>
          <rdf:Bag />
        </dc:subject>
        <dc:date />
        <dc:rights>
          <cc:Agent>
            <dc:title />
          </cc:Agent>
        </dc:rights>
        <dc:publisher>
          <cc:Agent>
            <dc:title />
          </cc:Agent>
        </dc:publisher>
        <dc:identifier />
        <dc:relation />
        <dc:language />
        <dc:coverage />
        <dc:description />
        <dc:contributor>
          <cc:Agent>
            <dc:title />
          </cc:Agent>
        </dc:contributor>
      </cc:Work>
      <cc:License
         rdf:about="http://creativecommons.org/licenses/by-sa/4.0/">
        <cc:permits
           rdf:resource="http://creativecommons.org/ns#Reproduction" />
        <cc:permits
           rdf:resource="http://creativecommons.org/ns#Distribution" />
        <cc:requires
           rdf:resource="http://creativecommons.org/ns#Notice" />
        <cc:requires
           rdf:resource="http://creativecommons.org/ns#Attribution" />
        <cc:permits
           rdf:resource="http://creativecommons.org/ns#DerivativeWorks" />
        <cc:requires
           rdf:resource="http://creativecommons.org/ns#ShareAlike" />
      </cc:License>
    </rdf:RDF>
  </metadata>
  <g
     id="layer1"
     inkscape:label="App Icon"
     inkscape:groupmode="layer"
     style="display:inline"
     transform="translate(0,-172)">
    <path
       style="fill:#000000;stroke-width:0.663453"
       d="m 49.699375,285.82897 c -2.173235,-0.58588 -4.128669,-1.60266 -8.268307,-4.29931 -8.165476,-5.31921 -12.209008,-7.4663 -17.292223,-9.18207 -2.659855,-0.8978 -6.57957,-1.99137 -9.303553,-2.59563 -1.158553,-0.257 -2.392138,-0.61214 -2.741293,-0.78918 -2.2440647,-1.13793 -3.6941836,-3.82033 -3.6876905,-6.82143 0.00514,-2.39552 0.8276087,-4.37816 2.4914685,-6.00625 1.280631,-1.2531 2.458512,-1.73125 4.251292,-1.7258 1.626996,0.004 2.310851,0.31766 4.086645,1.86863 2.359656,2.06091 2.222109,1.98951 3.829685,1.98834 0.783487,-4.2e-4 2.214446,-0.11905 3.179907,-0.2633 2.75869,-0.41214 7.98701,-1.53552 7.98701,-1.71613 0,-0.0899 -0.320681,-0.56978 -0.712623,-1.06633 -2.843863,-3.6029 -5.947146,-5.55461 -8.832041,-5.55461 -0.595005,0 -1.949306,0.19677 -3.009552,0.43726 -3.300496,0.74864 -6.578797,0.52895 -8.586241,-0.57538 -1.286987,-0.70799 -1.168307,-0.95221 0.142208,-0.29263 2.18146,1.09792 5.192153,1.22028 8.535003,0.34688 2.604217,-0.68042 4.425512,-0.5887 6.538815,0.32926 0.362049,0.15727 0.658269,0.25467 0.658269,0.21644 0,-0.15292 -2.254021,-1.52343 -3.159693,-1.92121 -1.520223,-0.66767 -3.044737,-0.97233 -5.845566,-1.16818 -5.575084,-0.38984 -8.46737,-1.54418 -9.860284,-3.93532 -0.9449749,-1.62219 -0.9409038,-3.31266 0.01028,-4.26382 0.567371,-0.56738 1.535955,-0.52257 1.620817,0.075 0.0429,0.30206 -0.03064,0.39496 -0.312702,0.39496 -0.202838,0 -0.414262,-0.11849 -0.469837,-0.26331 -0.155329,-0.40478 -0.516073,-0.31389 -0.870815,0.21943 -0.2133548,0.32075 -0.3213321,0.80668 -0.3217938,1.44819 -0.00166,2.45681 2.5013118,4.66477 6.0601768,5.3457 0.716766,0.13714 2.645488,0.33234 4.286049,0.43379 3.173388,0.19624 4.415968,0.44644 6.172363,1.24282 2.548713,1.15565 4.6874,3.06168 7.218493,6.43329 l 1.601536,2.13336 0.74846,-0.16817 c 0.411652,-0.0925 0.76354,-0.18359 0.781975,-0.20243 0.01838,-0.0188 -0.402,-0.82419 -0.934314,-1.78966 -1.831721,-3.32218 -3.169727,-5.16278 -5.263794,-7.24096 -1.094449,-1.08615 -1.937394,-1.97481 -1.873223,-1.97481 0.242765,0 2.084161,1.49585 3.054192,2.48106 1.478046,1.50117 2.759223,3.27745 4.290285,5.94823 0.74609,1.30149 1.37746,2.38942 1.403047,2.41763 0.164397,0.18124 10.348524,-2.29635 10.725642,-2.60933 0.111994,-0.0929 0.784624,-1.41173 1.494742,-2.93064 1.236726,-2.64527 1.290305,-2.81342 1.271722,-3.99041 -0.02736,-1.7309 -0.55466,-3.01827 -1.729043,-4.22115 -0.51401,-0.52649 -0.874662,-0.95724 -0.801446,-0.95724 0.07318,0 0.619312,0.31424 1.21356,0.69832 0.594248,0.38408 1.080441,0.66507 1.080441,0.62442 0,-0.20607 -0.826049,-1.48432 -1.301474,-2.01393 l -0.54168,-0.6034 0.526626,0.32303 c 0.289631,0.17768 0.835179,0.56437 1.212323,0.85931 l 0.685699,0.53629 -0.117308,-0.51922 c -0.324985,-1.43835 -0.331023,-3.17947 -0.01464,-4.21425 l 0.319374,-1.04451 0.132092,1.4674 c 0.07266,0.80707 0.170181,1.50549 0.216738,1.55205 0.04661,0.0466 0.129731,-0.29779 0.184835,-0.76523 0.143757,-1.21964 0.561404,-2.90382 0.914189,-3.68649 l 0.303902,-0.67419 0.123789,1.40432 c 0.106374,1.20673 0.381291,2.36977 0.560158,2.36977 0.02953,0 0.07005,-0.71451 0.09013,-1.58779 0.02004,-0.87329 0.157461,-2.10947 0.30534,-2.74711 0.288141,-1.24245 1.231472,-3.38881 1.489383,-3.38881 0.08608,0 0.183389,0.33572 0.216285,0.74604 0.06891,0.85972 0.185393,0.64969 0.462374,-0.8338 0.173274,-0.92801 1.080441,-3.00702 1.417022,-3.24746 0.06761,-0.0484 0.370479,-0.45184 0.673144,-0.8968 0.566091,-0.83226 5.020059,-5.63779 5.326522,-5.74697 0.09795,-0.0348 0.130516,0.13436 0.07597,0.39495 -0.05245,0.25082 -0.136421,0.65352 -0.186533,0.89488 -0.139262,0.67077 0.03659,0.52484 0.424633,-0.35227 0.578471,-1.30774 1.741293,-2.65207 5.075964,-5.86827 3.850059,-3.71331 4.381728,-4.0805 4.189053,-2.89316 l -0.102027,0.62869 0.494112,-0.67258 c 0.635543,-0.86509 0.873495,-1.06693 3.641972,-3.08929 2.090479,-1.52709 4.153159,-2.76168 4.614069,-2.76168 0.11465,0 0.118849,0.15086 0.01202,0.43186 -0.140673,0.37001 -0.06499,0.33563 0.528264,-0.24014 1.255334,-1.21827 4.170278,-2.52018 7.776254,-3.47313 1.372659,-0.36276 2.21311,-0.47444 3.629469,-0.48231 2.083902,-0.0115 2.742131,0.20429 3.137344,1.02889 0.211877,0.44206 0.206676,0.62834 -0.03938,1.40891 -0.568487,1.80345 -3.555191,4.68612 -5.900681,5.69511 -0.549337,0.23632 -0.854825,0.4552 -0.736977,0.52802 0.29587,0.18286 -3.550837,4.33522 -4.876513,5.26399 -0.60438,0.42343 -1.426492,0.87234 -1.826923,0.99759 l -0.728048,0.22775 0.789929,0.0151 0.789921,0.0151 -1.076198,1.00602 c -2.311112,2.1604 -2.821777,2.66822 -3.837818,3.81636 -0.578697,0.65393 -1.356334,1.38096 -1.728085,1.61564 -0.695343,0.43896 -0.792856,0.76351 -0.121437,0.40419 0.750768,-0.4018 0.708559,-0.0597 -0.140813,1.14126 -1.220225,1.72524 -2.609752,3.20357 -3.875837,4.12352 -0.682728,0.49608 -0.984425,0.80951 -0.813591,0.84522 0.14935,0.0313 0.271537,0.12315 0.271537,0.20431 0,0.22628 -2.06985,1.80333 -3.213993,2.44879 -0.560872,0.31641 -0.988607,0.60645 -0.950527,0.64454 0.03807,0.0381 0.43758,-0.0416 0.887757,-0.1771 l 0.818504,-0.24633 -0.34964,0.49102 c -0.192301,0.27006 -0.82834,0.90574 -1.413432,1.41261 -0.585092,0.50687 -1.223126,1.23389 -1.417858,1.6156 -0.43832,0.85918 -1.508202,2.03514 -2.437428,2.67909 -0.386126,0.26759 -1.392837,0.75639 -2.237146,1.08624 l -1.535096,0.59972 1.39187,-0.098 c 0.811552,-0.0572 1.566206,-0.21222 1.809987,-0.37195 0.75542,-0.49497 0.860488,-0.15043 0.15828,0.51905 -0.948898,0.90464 -1.818812,1.30348 -3.585988,1.64409 l -1.529538,0.29481 1.458822,0.15582 c 0.802344,0.0857 1.41947,0.19517 1.371371,0.24327 -0.04809,0.0481 -0.64524,0.19374 -1.327,0.32363 -1.556388,0.29656 -2.150392,0.59178 -1.206356,0.59956 0.35634,0.003 0.696728,0.0843 0.756397,0.18087 0.06412,0.10368 -0.132171,0.17554 -0.47938,0.17554 -0.637756,0 -2.188856,0.36864 -3.031397,0.72047 l -0.526617,0.2199 0.438843,0.0662 c 0.834047,0.12585 1.538537,0.4122 1.843702,0.74941 0.298631,0.32997 0.291461,0.33419 -0.285964,0.16836 -1.418973,-0.4075 -3.863178,0.53397 -5.166952,1.99025 -0.91892,1.02642 -1.981614,3.28249 -1.546178,3.28249 0.439496,0 3.43317,-1.21803 4.789591,-1.94872 1.979627,-1.06641 3.921253,-2.50295 5.767525,-4.26721 2.012516,-1.92311 3.218976,-3.47692 5.096351,-6.56366 1.793904,-2.94951 2.783487,-4.33477 4.108405,-5.75112 2.614134,-2.7945 5.879693,-3.8898 8.389091,-2.81376 0.530998,0.22769 1.852545,0.81386 2.936758,1.30259 6.52477,2.94118 16.187926,5.10367 26.027129,5.82452 3.58819,0.26288 5.39073,0.51512 6.4211,0.89853 2.61225,0.97203 4.08483,4.00187 3.58996,7.3863 -0.45902,3.13923 -1.7795,5.31545 -3.82661,6.30645 -1.1461,0.55481 -2.41979,0.49814 -4.35596,-0.1938 -5.13804,-1.83625 -5.99542,-2.11399 -6.3925,-2.0709 -0.38737,0.0421 -0.75799,0.67778 -3.1597,5.42011 -1.496459,2.95486 -2.939198,5.7356 -3.206083,6.17941 -1.902648,3.16389 -5.74815,6.60287 -11.536543,10.31695 -4.820841,3.09328 -7.551908,4.49249 -16.791651,8.60295 -10.04842,4.47022 -12.916763,5.4291 -16.563317,5.53707 -1.786891,0.0529 -2.434988,7e-5 -3.491114,-0.28466 z m 5.646524,-0.82261 c 2.822213,-0.51292 6.730224,-2.01222 15.925073,-6.10961 8.175951,-3.64336 12.422564,-5.94897 17.37448,-9.43312 3.927151,-2.76312 6.815096,-5.49261 8.431806,-7.96917 0.48094,-0.73672 2.332073,-4.23273 4.113642,-7.76891 1.84873,-3.66949 3.76742,-7.21878 4.46968,-8.26828 2.04069,-3.04968 4.26431,-5.07653 6.6631,-6.07344 l 0.98881,-0.41094 -0.87769,-0.003 c -1.37109,-0.005 -3.00516,0.87467 -5.00286,2.69489 l -0.96546,0.87969 0.96546,-1.01846 c 0.53101,-0.56015 1.47755,-1.38671 2.10341,-1.83681 l 1.13794,-0.81835 -0.9624,-0.12578 c -0.52933,-0.0692 -2.22561,-0.24687 -3.76953,-0.39486 l -2.80712,-0.26907 -0.8353,0.51927 c -0.96619,0.60061 -1.06453,0.53765 -0.29013,-0.18574 l 0.54517,-0.50928 h -0.50605 c -0.53192,0 -1.16912,0.49482 -2.03817,1.58279 l -0.488427,0.61145 0.272286,-0.56814 c 0.149743,-0.31247 0.506601,-0.83502 0.793001,-1.16121 l 0.52074,-0.5931 -1.357824,-0.21449 c -4.012041,-0.63379 -9.891133,-2.08498 -12.834489,-3.16804 -1.049539,-0.3862 -2.07864,-0.70219 -2.286875,-0.70219 -0.96058,0 -2.218651,0.86977 -3.376132,2.33411 -0.84336,1.06692 -0.893332,0.90331 -0.06769,-0.22149 0.655024,-0.89233 1.978147,-2.18205 2.387168,-2.32693 0.345215,-0.12227 0.358605,-0.11421 -2.247609,-1.35329 -2.291022,-1.08924 -2.339871,-1.10332 -3.605346,-1.03941 -1.706689,0.0862 -3.243745,0.83603 -4.882444,2.3819 -1.488269,1.40396 -2.524382,2.78822 -4.344013,5.80361 -2.103557,3.48592 -3.247073,4.97581 -5.42963,7.07426 -3.130749,3.01008 -5.864203,4.67129 -9.981773,6.06624 l -1.95289,0.66161 -0.194122,0.84096 c -0.106766,0.46253 -0.289327,1.57212 -0.405702,2.46575 l -0.211598,1.62479 -1.59101,1.68817 c -0.928973,0.9857 -2.027448,2.39764 -2.639843,3.39316 -0.576859,0.93775 -1.110062,1.74283 -1.184889,1.78908 -0.239416,0.14797 -0.14631,-1.0471 0.208104,-2.67094 0.189287,-0.86728 0.427927,-2.46522 0.530319,-3.55098 0.183772,-1.94878 0.196309,-1.9879 0.976602,-3.04785 0.43474,-0.59055 0.753635,-1.11052 0.708664,-1.1555 -0.04495,-0.045 -1.369994,0.23677 -2.944486,0.62609 -1.574501,0.38933 -3.677874,0.88612 -4.674174,1.10401 -1.475505,0.32268 -1.797624,0.44897 -1.736962,0.68097 0.04095,0.15665 0.579647,1.10534 1.19706,2.10821 1.063975,1.7282 3.443311,4.43122 4.534999,5.15194 0.629444,0.41555 0.366393,0.50095 -0.63083,0.20481 -1.227335,-0.36448 -2.787695,-1.42026 -4.466008,-3.02183 -1.091418,-1.04152 -3.011273,-3.2071 -3.597967,-4.05851 -0.02161,-0.0314 -1.843619,0.30469 -4.048915,0.74676 -2.2053,0.44208 -4.918048,0.90612 -6.028329,1.03119 l -2.018693,0.22741 1.74126,1.02839 c 4.80984,2.84069 10.65647,5.19933 16.690297,6.73317 2.681182,0.68157 7.508478,1.62434 9.566862,1.86841 2.803029,0.33236 4.082287,0.83579 5.162701,2.03168 1.168799,1.29372 1.585522,2.89334 1.30076,4.9931 -0.305218,2.25057 -1.369959,3.94152 -3.0029,4.76899 -0.810402,0.41065 -0.947356,0.42857 -1.946722,0.25447 -1.075641,-0.18738 -2.816428,-0.73406 -3.035718,-0.95335 -0.330814,-0.33082 -1.286742,0.23618 -1.286742,0.76321 0,0.0954 -0.05924,0.16418 -0.131656,0.15274 -0.378504,-0.0598 -0.569071,0.0525 -0.556639,0.32799 0.0078,0.18351 0.04949,0.21885 0.102393,0.0878 0.0487,-0.12068 0.200446,-0.21942 0.337217,-0.21942 0.136779,0 0.228935,0.0987 0.204802,0.21942 -0.02544,0.12686 0.09354,0.19586 0.281922,0.16357 0.206623,-0.0355 0.297847,0.0288 0.249356,0.17554 -0.04208,0.12726 -0.339744,0.27088 -0.661531,0.31915 -0.551176,0.0827 -0.566213,0.10303 -0.259549,0.35108 0.187544,0.15169 0.269663,0.1703 0.193712,0.0439 -0.07248,-0.12069 -0.05349,-0.21943 0.04225,-0.21943 0.09575,0 0.224222,0.15798 0.285502,0.35108 0.06229,0.19626 0.265596,0.35107 0.461041,0.35107 0.192275,0 0.300783,-0.079 0.241115,-0.17554 -0.05968,-0.0965 -0.03328,-0.17553 0.05863,-0.17553 0.240147,0 0.396615,0.49576 0.195663,0.61995 -0.192361,0.1189 0.228578,0.60882 0.523089,0.60882 0.103446,0 0.188084,0.15798 0.188084,0.35108 0,0.19309 0.07649,0.35107 0.170024,0.35107 0.09351,0 0.124556,-0.11848 0.069,-0.2633 -0.05558,-0.14483 -0.01359,-0.26331 0.09328,-0.26331 0.106879,0 0.20056,0.13823 0.208174,0.30719 0.0087,0.18352 0.04948,0.21886 0.102401,0.0878 0.156242,-0.38721 0.438111,-0.23398 0.322921,0.17554 -0.06107,0.21723 -0.0467,0.31354 0.03206,0.21402 0.07876,-0.0995 0.893585,-0.18867 1.810771,-0.19812 1.493339,-0.0154 1.914723,-0.10098 4.032105,-0.81907 1.300463,-0.44104 2.388257,-0.77812 2.417303,-0.74907 0.02901,0.029 -0.403028,0.2569 -0.960171,0.50633 -1.598825,0.71577 -3.997405,1.34394 -5.324675,1.39449 -1.176674,0.0448 -1.546988,0.19431 -0.9106,0.3676 0.55798,0.15194 2.042032,0.0756 3.428065,-0.17626 z m 14.345224,-6.2933 c 0,-0.1232 4.154413,-2.17731 7.109319,-3.51514 3.900527,-1.76594 8.924593,-4.56417 11.075508,-6.16865 0.729967,-0.54452 0.997209,-0.5167 0.33451,0.0349 -2.845493,2.36809 -7.332907,4.89636 -12.551017,7.07141 -1.399928,0.58351 -3.315487,1.42036 -4.256814,1.85964 -0.941327,0.43927 -1.711506,0.76233 -1.711506,0.71792 z m 21.064646,-12.18162 c 3.600249,-2.90923 5.59386,-5.51383 7.904266,-10.32672 0.660442,-1.37578 1.239923,-2.50142 1.287735,-2.50142 0.04783,0 -0.424302,1.16514 -1.049173,2.58919 -1.300045,2.96278 -2.678821,5.36977 -3.952878,6.90072 -0.927754,1.1148 -3.136011,2.97082 -4.074977,3.42498 l -0.553824,0.26787 z m -42.30482,-0.89267 c -0.306054,-0.11293 -0.06699,-0.13364 0.789929,-0.0685 2.513449,0.19115 4.949701,-0.54573 6.637257,-2.00749 0.464456,-0.40233 0.919652,-0.73149 1.011529,-0.73149 0.09188,0 0.433859,-0.41471 0.75996,-0.92158 1.580041,-2.45584 3.082257,-2.79024 6.986269,-1.55512 3.010009,0.95227 4.006614,1.1401 6.020698,1.13469 1.945581,-0.005 3.61648,-0.4624 4.915044,-1.34479 0.880011,-0.59799 1.061326,-0.4193 0.263347,0.25954 -1.380387,1.17427 -3.02529,1.71984 -5.195075,1.72302 -1.180507,0.002 -1.473005,0.0596 -1.728398,0.34177 -0.867257,0.95831 -3.635394,1.53834 -5.937184,1.24407 -0.69861,-0.0893 -1.968642,-0.32889 -2.822291,-0.53241 -0.874531,-0.20849 -1.767411,-0.32272 -2.04536,-0.26167 -0.27131,0.0596 -1.052501,0.532 -1.735951,1.04979 -1.82789,1.3848 -2.81878,1.71264 -5.374465,1.77812 -1.158553,0.0297 -2.303942,-0.0189 -2.545309,-0.10797 z m 18.55488,-2.51483 c 0.496098,-0.12868 1.125508,-0.38162 1.398683,-0.56208 l 0.49669,-0.32811 -1.228771,-0.28362 c -0.675819,-0.15599 -2.122819,-0.58282 -3.215553,-0.9485 -2.223303,-0.74403 -3.624042,-0.86816 -4.525973,-0.40112 -0.542611,0.28099 -1.649789,1.4115 -1.649789,1.68456 0,0.079 0.533194,0.23512 1.184889,0.34684 0.651686,0.11173 1.777317,0.31366 2.501426,0.44874 1.710374,0.31906 3.902697,0.3379 5.038398,0.0433 z m -14.755778,-0.99427 c -0.774204,-0.24046 -1.166028,-0.68883 -1.166028,-1.33431 0,-0.69935 0.515256,-1.12375 1.364323,-1.12375 1.545602,0 2.89697,1.69245 1.814107,2.27198 -0.482838,0.25841 -1.482066,0.3508 -2.012402,0.18608 z m 0.307744,-3.82696 c 0.339499,-0.6565 1.691163,-1.36428 3.085438,-1.6156 1.410478,-0.25426 3.064067,-0.12355 6.763041,0.53459 8.375805,1.49029 13.021987,1.01651 17.084183,-1.74208 1.356081,-0.9209 3.25,-2.6695 3.067291,-2.83194 -0.07701,-0.0685 -0.836992,-0.29562 -1.688794,-0.50472 l -1.548721,-0.38017 -0.902515,0.81143 c -1.952725,1.75566 -4.745438,2.71708 -7.833097,2.69658 -1.022419,-0.007 -2.016942,-0.0815 -2.210035,-0.16593 -0.218881,-0.0958 0.114659,-0.11593 0.885849,-0.0536 2.037937,0.16486 5.206052,-0.55542 6.925625,-1.57453 0.995019,-0.5897 2.314048,-1.74313 2.16055,-1.88932 -0.288072,-0.27436 -3.706919,-0.90279 -5.408014,-0.99408 -3.684007,-0.19769 -6.407164,1.24325 -6.407164,3.39029 0,1.44597 1.296665,2.34935 3.598542,2.5071 1.142941,0.0783 1.273622,0.11396 0.702156,0.19148 -1.729139,0.23454 -3.884288,-0.46915 -4.492728,-1.46696 -0.4783,-0.78437 -0.44881,-2.1683 0.06238,-2.92683 0.579803,-0.86038 1.767054,-1.69812 2.906048,-2.05055 0.744139,-0.23026 1.555299,-0.30447 3.191916,-0.29202 2.066077,0.0158 2.523564,0.0815 6.241008,0.8974 0.69157,0.15178 1.064358,-1.57175 0.510882,-2.36196 -0.395892,-0.5652 -1.500195,-0.85567 -2.181023,-0.57366 -0.554504,0.22968 -0.836609,0.82145 -0.638157,1.33862 0.07693,0.20045 0.26218,0.2608 0.633313,0.20633 0.554887,-0.0815 0.715702,0.10239 0.246934,0.28227 -1.212733,0.46536 -2.004597,-0.96239 -1.058487,-1.9085 0.589631,-0.58962 1.523605,-0.72822 2.47049,-0.3666 1.267654,0.48413 1.846525,1.90207 1.248574,3.05838 -0.226025,0.43709 -0.239746,0.57596 -0.06316,0.63947 0.620776,0.22326 3.216275,0.75269 3.333853,0.68002 0.07423,-0.0459 0.342801,-0.43801 0.596757,-0.87136 0.452712,-0.7725 0.455335,-0.795 0.133739,-1.1506 -0.715311,-0.79097 -0.222863,-2.8616 0.807248,-3.3943 0.681412,-0.35237 0.922457,-0.33642 1.474147,0.0975 0.481967,0.37913 0.608431,1.0697 0.286983,1.56712 -0.126734,0.19609 -0.170843,0.0969 -0.172847,-0.3888 -0.0044,-1.16462 -1.07023,-1.22529 -1.756312,-0.10001 -0.361053,0.59218 -0.478352,1.79482 -0.192301,1.97161 0.0883,0.0546 0.286147,-0.23698 0.439653,-0.6479 0.256979,-0.6879 0.255629,-0.39909 -0.0035,0.63989 -0.08128,0.32665 -0.02143,0.44808 0.266065,0.53932 0.80819,0.25651 2.344183,-0.70414 2.498761,-1.56279 0.06142,-0.34128 0.358596,-0.43608 0.455526,-0.14531 0.0798,0.23938 -0.684357,1.28389 -1.24116,1.69653 -0.353326,0.26185 -0.772567,0.37127 -1.461105,0.38131 -0.943845,0.0137 -0.974929,0.0305 -1.379638,0.74302 -0.227733,0.40093 -0.360165,0.76187 -0.294284,0.80212 0.433694,0.26502 3.917794,0.49345 6.317022,0.41418 2.300318,-0.076 3.014975,-0.16837 4.328524,-0.55954 3.020202,-0.89938 5.681159,-2.7192 6.914639,-4.72892 0.54699,-0.89119 0.63447,-1.18212 0.63705,-2.11859 0.003,-1.40363 -0.52519,-2.25588 -1.85907,-2.99461 -0.882128,-0.48855 -1.071955,-0.52422 -2.78969,-0.52422 -2.097998,0 -2.742575,0.23707 -3.897164,1.43333 -0.806744,0.83585 -1.193462,1.73752 -1.193462,2.78268 0,1.11182 0.401781,1.80041 1.284302,2.20109 1.157699,0.52561 2.163922,0.40369 2.921617,-0.35401 0.453575,-0.45357 0.456101,-0.70916 0.007,-0.70916 -0.422542,0 -0.491724,-0.6592 -0.08555,-0.81508 0.633722,-0.24317 1.020258,0.75467 0.597986,1.5437 -0.258783,0.48353 -1.498601,1.01823 -2.371879,1.02291 -1.069158,0.006 -2.160498,-0.64308 -2.666423,-1.58525 -0.341878,-0.63666 -0.402435,-0.95218 -0.328278,-1.71052 0.334019,-3.41575 4.724084,-5.45891 8.255526,-3.84216 3.863465,1.76876 3.226335,5.96746 -1.37225,9.04318 -3.481452,2.32854 -8.292039,3.18501 -13.489312,2.40162 l -1.71777,-0.25892 -1.155321,1.2247 c -4.551691,4.82504 -10.438441,5.90198 -20.604839,3.76952 -2.095123,-0.43947 -4.680586,-0.62767 -5.91455,-0.43054 -1.282787,0.20492 -2.400541,0.70815 -2.724254,1.22651 -0.331371,0.53061 -0.526286,0.41262 -0.238309,-0.14424 z m -5.272612,25.19827 c -1.008131,-1.14002 -1.642855,-2.86754 -1.642855,-4.47137 0,-0.61878 -0.08015,-1.27487 -0.17817,-1.45797 -0.270535,-0.5055 -1.560239,-1.32577 -3.003283,-1.91013 -1.511975,-0.61228 -1.387131,-0.69515 0.274202,-0.18201 1.193453,0.36862 1.449221,0.35525 2.604847,-0.13617 0.547168,-0.23268 0.759481,-0.48401 1.214772,-1.43802 0.67676,-1.41809 2.169924,-2.96076 3.421487,-3.53493 0.498947,-0.2289 0.868677,-0.47847 0.821606,-0.55461 -0.04705,-0.0761 -0.430314,-0.13846 -0.85168,-0.13846 -0.602629,0 -0.94692,0.13349 -1.613365,0.62553 l -0.847263,0.62554 0.672308,-0.64075 c 0.369765,-0.35242 0.646242,-0.66526 0.614382,-0.69522 -0.03189,-0.0299 -0.92683,-0.22581 -1.988845,-0.43524 -1.062006,-0.20945 -2.964872,-0.6243 -4.228588,-0.9219 -2.683186,-0.63189 -3.023295,-0.59393 -3.994722,0.44586 -0.608614,0.65144 -0.654892,0.67436 -0.416418,0.20626 0.147565,-0.28964 0.470407,-0.71542 0.717437,-0.94618 l 0.44914,-0.41957 -2.670579,-0.90935 c -3.98848,-1.3581 -6.598749,-2.43827 -9.423667,-3.89964 -2.68463,-1.3888 -3.000914,-1.45566 -3.948427,-0.83483 -0.238702,0.15641 -0.673497,0.64595 -0.966217,1.08786 -0.677605,1.02301 -0.701265,0.72754 -0.0269,-0.33584 0.277928,-0.43825 0.811125,-0.98692 1.184885,-1.21926 l 0.679561,-0.42243 -0.560807,-0.0543 c -0.308446,-0.0298 -0.7824,0.0769 -1.053232,0.23719 -0.443604,0.26258 -0.434462,0.23942 0.0922,-0.23359 l 0.584618,-0.52508 -1.550082,-1.06528 c -0.852545,-0.58591 -2.142527,-1.59225 -2.866621,-2.23631 -1.6339,-1.45331 -2.393338,-1.81876 -3.78993,-1.8238 -1.960751,-0.007 -3.752415,1.2199 -4.790302,3.2805 -0.2047342,0.40647 -0.372244,0.81232 -0.372244,0.90188 0,0.0896 0.277782,0.56667 0.617297,1.06023 0.339514,0.49356 0.556743,0.89874 0.482734,0.90038 -0.07401,8.7e-4 0.260394,0.23728 0.743128,0.52363 1.108564,0.65758 0.96902,0.6643 -0.458454,0.022 -1.9890192,-0.89481 -1.9113209,-0.90641 -1.9113209,0.28526 0,2.50411 1.5159669,5.11611 3.4345789,5.91776 0.320967,0.13411 1.836884,0.52762 3.368696,0.87448 2.334162,0.52856 6.527982,1.69369 7.621751,2.1175 0.268787,0.10414 0.274055,0.0471 0.06108,-0.66049 -0.268048,-0.89067 -0.176361,-2.41979 0.192042,-3.20271 0.136287,-0.28965 0.198385,-0.36863 0.137991,-0.17554 -0.06039,0.1931 -0.150838,0.87982 -0.20099,1.52608 -0.07655,0.98635 -0.02858,1.29513 0.298873,1.92334 0.376878,0.72306 0.810391,1.18519 1.122666,1.19678 0.08274,0.003 0.104565,-0.11397 0.0485,-0.26006 -0.05606,-0.14611 -0.140094,-0.63981 -0.186733,-1.09712 -0.08106,-0.79492 -0.07694,-0.80446 0.09385,-0.21709 0.432189,1.48636 0.689522,1.76624 2.17595,2.36654 2.050319,0.82804 4.889947,2.20845 6.494963,3.15736 2.223866,1.31478 2.039458,1.27578 1.93149,0.40849 l -0.09388,-0.754 0.264802,0.81127 c 0.145639,0.4462 0.383809,0.91003 0.529265,1.03074 0.22924,0.19026 0.250759,0.14066 0.161608,-0.37241 -0.05654,-0.32555 -0.140185,-0.7104 -0.185827,-0.85522 -0.05184,-0.16442 -0.02431,-0.19739 0.07335,-0.0878 0.08599,0.0965 0.251325,0.50957 0.367413,0.91786 0.241254,0.84852 0.06229,0.70159 3.885507,3.19015 4.048449,2.63517 4.668041,2.98829 4.481926,2.55429 -0.517426,-1.20653 -0.782106,-2.20132 -0.768481,-2.88822 0.01516,-0.76209 0.02108,-0.75281 0.16823,0.2633 0.218829,1.51077 1.034389,3.065 1.861179,3.54689 0.857586,0.49985 1.077051,0.50251 0.639542,0.008 z m 7.675793,-4.31813 c 1.057772,-1.07441 1.574239,-2.43593 1.602457,-4.22439 0.01385,-0.87552 -0.0737,-1.54194 -0.255603,-1.94592 -0.314539,-0.69859 -1.05068,-1.57984 -1.319708,-1.57984 -0.09912,0 -0.226748,-0.12125 -0.28362,-0.26944 -0.09289,-0.24209 -0.15659,-0.24195 -0.627119,8.7e-4 -0.341912,0.1768 -0.488841,0.36176 -0.423222,0.53276 0.05523,0.14405 0.01307,0.26192 -0.09381,0.26192 -0.106871,0 -0.194313,-0.0887 -0.194313,-0.19704 0,-0.13372 -0.08703,-0.12482 -0.270753,0.0276 -0.220249,0.18279 -0.310288,0.18198 -0.482734,-0.004 -0.169623,-0.18327 -0.150596,-0.20744 0.09521,-0.12094 0.205674,0.0724 0.307186,0.0195 0.307186,-0.16006 0,-0.14749 0.07353,-0.22272 0.163412,-0.16718 0.08987,0.0555 0.220641,0.009 0.290599,-0.1048 0.09169,-0.14836 -0.02526,-0.17532 -0.418927,-0.0966 -0.434862,0.087 -0.525998,0.0568 -0.447355,-0.14814 0.05436,-0.14155 0.007,-0.25736 -0.105921,-0.25736 -0.112577,0 -0.15923,0.0735 -0.103682,0.1634 0.0555,0.0899 0.01943,0.21383 -0.08024,0.27544 -0.0997,0.0616 -0.13548,0.18613 -0.07954,0.27669 0.05602,0.0906 -0.02178,0.21203 -0.172682,0.26996 -0.150936,0.0579 -0.283594,0.27459 -0.294798,0.48148 -0.01708,0.31541 -0.0338,0.32447 -0.103124,0.0561 -0.04861,-0.1882 -0.184922,-0.28087 -0.330709,-0.22492 -0.326841,0.12541 -0.313215,0.0209 0.04382,-0.33608 0.246629,-0.24664 0.253424,-0.31605 0.04382,-0.44869 -0.136352,-0.0863 -0.366393,-0.14897 -0.511205,-0.13925 -0.186577,0.0125 -0.173779,0.041 0.04382,0.0979 0.374138,0.0978 0.382911,0.21941 0.05009,0.69458 -0.282348,0.40311 -0.197345,0.61738 0.186507,0.47009 0.135377,-0.0519 0.246141,-0.003 0.246141,0.11022 0,0.11256 -0.07222,0.16003 -0.160545,0.10545 -0.0883,-0.0546 -0.190567,-0.009 -0.227262,0.10092 -0.04426,0.1328 -0.161696,0.10516 -0.349013,-0.0822 -0.23377,-0.23376 -0.298492,-0.24015 -0.376386,-0.0371 -0.05436,0.14177 -0.236863,0.20782 -0.432623,0.15664 -0.2638,-0.069 -0.333984,-8.7e-4 -0.317937,0.30627 0.01133,0.21715 0.113135,0.42562 0.226226,0.46326 0.132893,0.0443 0.174075,-0.0747 0.116419,-0.33654 -0.06499,-0.29497 -0.04295,-0.33966 0.08111,-0.1645 0.139131,0.19653 0.205107,0.18049 0.360957,-0.0878 0.178205,-0.30671 0.191064,-0.30233 0.196056,0.0667 0.0026,0.21722 -0.07362,0.39496 -0.170207,0.39496 -0.09655,0 -0.175539,0.0843 -0.175539,0.18737 0,0.10825 0.150091,0.13973 0.355494,0.0746 0.235957,-0.0749 0.339247,-0.0395 0.307187,0.10529 -0.02997,0.13512 0.548423,0.40633 1.519458,0.71258 0.862256,0.27194 1.631224,0.59444 1.708805,0.71666 0.36019,0.56746 -0.03668,2.51849 -0.477873,2.34918 -0.672613,-0.2581 -1.687069,-0.46186 -1.837273,-0.36904 -0.280527,0.17337 -0.194845,1.55286 0.125532,2.02102 0.549721,0.80329 0.850513,0.77797 1.876085,-0.15793 0.454821,-0.41505 0.485478,-0.42262 0.305923,-0.0755 -0.109754,0.21218 -0.434347,0.52449 -0.72133,0.694 -0.357865,0.21139 -0.45442,0.34985 -0.307387,0.44072 0.409387,0.25302 1.099407,-0.0665 1.900025,-0.87967 z m -3.862726,0.3512 c -0.302038,-0.56437 -0.217871,-2.14188 0.158541,-2.9712 0.194932,-0.42948 0.568165,-0.87991 0.87272,-1.05323 0.677701,-0.38567 0.670688,-0.49809 -0.03816,-0.61313 -0.314888,-0.051 -1.300594,-0.37739 -2.19045,-0.72512 -0.889847,-0.34771 -1.691703,-0.63221 -1.781908,-0.63221 -0.0902,0 -0.12493,0.24792 -0.07719,0.55091 0.06926,0.43953 0.03328,0.53037 -0.178022,0.44928 -0.526137,-0.2019 -0.98656,0.98914 -0.493607,1.27689 0.24351,0.14215 0.219422,0.1711 -0.147974,0.17781 -0.241367,0.004 -0.359859,0.0661 -0.263312,0.137 0.283638,0.20838 0.301018,0.7399 0.02762,0.8448 -0.148436,0.057 -0.215606,0.2365 -0.163299,0.43651 0.04888,0.18685 4.19e-4,0.33973 -0.107175,0.33973 -0.107803,0 -0.194792,0.13824 -0.19332,0.3072 0.0026,0.26252 0.02744,0.2689 0.172855,0.0438 0.147556,-0.22834 0.170521,-0.22486 0.172847,0.0262 0.0017,0.20936 0.597994,0.50887 2.153032,1.08186 1.182703,0.4358 2.176502,0.76649 2.208458,0.73488 0.03197,-0.0316 -0.02727,-0.21704 -0.131648,-0.41206 z M 41.09176,262.17039 c -1.13598,-1.15834 -2.02256,-2.27439 -2.73429,-3.44197 -0.579272,-0.95029 -1.096227,-1.79639 -1.148769,-1.88021 -0.106636,-0.17008 -1.39715,0.13531 -1.395477,0.33022 0.0026,0.2759 3.011063,3.70362 4.055898,4.62079 0.856942,0.75222 2.698519,2.08532 2.88074,2.08532 0.01263,0 -0.733528,-0.77136 -1.658102,-1.71415 z m 5.953119,-4.83264 c 0.0017,-0.62809 0.745637,-1.39597 1.278151,-1.32028 0.772619,0.1098 0.485078,1.70603 -0.355372,1.97277 -0.340319,0.10802 -0.490314,0.42582 -1.287004,2.72693 -0.55439,1.60128 -0.525492,1.6155 0.486968,0.23961 0.367918,-0.49997 1.103397,-1.40557 1.634405,-2.01244 0.90302,-1.03203 0.921254,-1.06999 0.281956,-0.58683 l -0.683503,0.51657 0.308406,-0.5964 c 0.169624,-0.32801 0.528856,-1.4322 0.798293,-2.45373 0.269437,-1.02154 0.549399,-2.04743 0.622162,-2.27976 0.0935,-0.29852 0.07327,-0.38594 -0.06891,-0.29808 -0.12953,0.0801 -0.164709,0.0293 -0.09878,-0.14253 0.05637,-0.14678 0.15416,-0.26002 0.217418,-0.25164 0.600503,0.0795 0.122927,-0.47819 -0.555183,-0.64839 -0.411566,-0.10329 -0.496134,-0.0193 -1.007443,1.00069 -0.306986,0.61239 -0.983267,1.7231 -1.502844,2.46823 -0.674381,0.96713 -0.944881,1.51964 -0.945352,1.93092 -4.27e-4,0.50835 -0.273549,2.35514 -0.617012,4.17468 -0.06377,0.33792 0.245784,-0.41251 0.687937,-1.66761 0.442153,-1.2551 0.804705,-2.50283 0.805672,-2.77271 z m 67.470901,-5.63119 c 2.11244,-0.88264 3.66736,-3.84498 3.69711,-7.0435 0.0131,-1.40801 -0.0412,-1.69373 -0.49939,-2.62685 -0.28273,-0.57585 -0.54692,-0.94841 -0.58709,-0.82791 -0.0402,0.12051 0.0162,0.32656 0.12517,0.45791 0.10902,0.13136 0.23375,0.6619 0.27718,1.17899 0.0773,0.91967 0.0751,0.92486 -0.0977,0.23801 -0.0971,-0.38619 -0.30917,-0.97863 -0.47116,-1.31654 -0.16199,-0.33792 -0.31104,-0.71154 -0.33121,-0.8303 -0.0483,-0.28415 -0.59539,-0.82822 -0.59539,-0.59206 0,0.10042 -0.11803,0.13728 -0.2623,0.0819 -0.14427,-0.0553 -0.22197,-0.16591 -0.17268,-0.24566 0.17625,-0.28519 -0.24425,-0.34267 -0.51633,-0.0706 -0.25156,0.25156 -0.27747,0.25171 -0.27747,8.8e-4 0,-0.15172 -0.0836,-0.27585 -0.18589,-0.27585 -0.10225,0 -0.12878,0.0924 -0.059,0.20536 0.0854,0.13809 0.0313,0.16865 -0.16518,0.0933 -0.19512,-0.0748 -0.2921,-0.0216 -0.2921,0.16034 0,0.14984 -0.0987,0.23622 -0.21942,0.19197 -0.12069,-0.0443 -0.20514,-0.15292 -0.18769,-0.2415 0.0174,-0.0886 -0.14053,-0.16939 -0.35108,-0.17958 -0.21055,-0.0102 -0.28408,0.0195 -0.16339,0.0659 0.12068,0.0465 0.21942,0.24436 0.21942,0.43974 0,0.25752 -0.0794,0.32475 -0.28869,0.24444 -0.16182,-0.0621 -0.43037,0.0174 -0.61109,0.18098 -0.30328,0.27447 -0.33233,0.26692 -0.49009,-0.12742 -0.0922,-0.23055 -0.17152,-0.30069 -0.17616,-0.15587 -0.004,0.14482 0.0638,0.37739 0.15197,0.51682 0.11245,0.17775 0.0508,0.3486 -0.20638,0.57162 -0.20172,0.17495 -0.41335,0.26728 -0.47028,0.20518 -0.0569,-0.0621 -0.004,-0.14818 0.11591,-0.19129 0.12068,-0.0431 0.21943,-0.15524 0.21943,-0.24919 0,-0.094 -0.23698,-0.0309 -0.52662,0.14025 -0.28964,0.17109 -0.52662,0.37769 -0.52662,0.45912 0,0.0815 0.079,0.0992 0.17554,0.0396 0.22319,-0.13794 0.22354,0.0212 8.5e-4,0.43708 -0.19371,0.36193 0.0499,0.47378 1.92997,0.88612 2.01482,0.44189 2.7397,1.28623 2.58346,3.00921 -0.11078,1.22175 -0.54473,2.02862 -1.34118,2.49377 -0.56726,0.3313 -0.62814,0.33311 -1.69021,0.0501 -1.24033,-0.3305 -1.72687,-0.37064 -1.57826,-0.13018 0.0555,0.0899 0.0206,0.21303 -0.0774,0.27367 -0.31198,0.19281 -0.1919,0.4851 0.16134,0.39272 0.18685,-0.0489 0.37842,0.0119 0.42571,0.1352 0.0574,0.14951 -0.0265,0.19464 -0.25198,0.13566 -0.18586,-0.0486 -0.33794,-1.6e-4 -0.33794,0.10764 0,0.1078 0.0836,0.19601 0.1859,0.19601 0.10225,0 0.13708,0.079 0.0775,0.17554 -0.0597,0.0966 -0.0202,0.17554 0.0878,0.17554 0.10793,0 0.15081,0.0735 0.0953,0.16341 -0.20702,0.33498 0.21252,0.33365 0.79483,-0.003 l 0.60199,-0.34752 -0.48274,0.40709 c -0.90811,0.76581 -0.44052,0.92631 0.55394,0.19012 l 0.63095,-0.46708 -0.60493,0.64263 -0.60495,0.64262 h 0.53634 c 0.37578,0 0.79335,-0.21982 1.39487,-0.73426 l 0.85852,-0.73425 -0.78259,0.82201 c -0.70028,0.73558 -0.74123,0.82205 -0.38932,0.82205 0.21629,0 0.65319,-0.10862 0.97089,-0.24135 z m -4.53622,-1.21814 c -0.34204,-0.8186 -0.33883,-2.26763 0.008,-3.43419 0.30681,-1.03316 1.22625,-2.16373 2.14155,-2.6333 l 0.59736,-0.30646 -1.37441,-0.29444 c -1.93412,-0.41434 -3.20181,-0.55371 -2.86649,-0.31514 0.22809,0.16227 0.22296,0.18768 -0.0383,0.19002 -0.19556,0.002 -0.26615,0.0953 -0.20065,0.26599 0.0556,0.14482 0.009,0.26331 -0.10363,0.26331 -0.11258,0 -0.15586,0.079 -0.0962,0.17554 0.0597,0.0965 0.0315,0.17554 -0.0627,0.17554 -0.0942,0 -0.21662,-0.0987 -0.27205,-0.21943 -0.0555,-0.12068 -0.0598,-0.0515 -0.01,0.15379 0.0685,0.28047 -0.008,0.40041 -0.30881,0.48272 -0.25632,0.0702 -0.32808,0.15679 -0.19989,0.24118 0.14511,0.0955 0.13306,0.19379 -0.0438,0.358 -0.13414,0.12449 -0.2451,0.164 -0.24658,0.0878 -8.7e-4,-0.0762 -0.079,-0.0201 -0.17227,0.12473 -0.12122,0.18824 -0.0829,0.3326 0.13435,0.50634 0.25905,0.20716 0.26172,0.22862 0.0181,0.14538 -0.34663,-0.11846 -0.67966,0.18151 -0.67966,0.61216 0,0.17378 -0.10507,0.31597 -0.23348,0.31597 -0.15369,0 -0.2265,0.20997 -0.21309,0.61439 0.0112,0.33791 -0.0333,0.61438 -0.0988,0.61438 -0.0656,0 -0.16805,0.12728 -0.22775,0.28284 -0.0791,0.20615 -0.0335,0.25406 0.16824,0.17666 0.21312,-0.0818 0.25123,-0.0257 0.1657,0.24376 -0.0889,0.27994 -0.0297,0.35127 0.29571,0.3565 0.22373,0.003 1.23621,0.34562 2.24994,0.76007 1.01375,0.41445 1.86395,0.7396 1.88935,0.72258 0.0254,-0.0171 -0.0734,-0.31703 -0.21942,-0.66667 z m -56.408668,-4.11699 c 2.285846,-4.64969 3.879923,-7.49707 6.017534,-10.74862 2.388702,-3.63347 7.077111,-9.75504 9.282668,-12.1202 5.170716,-5.54488 7.382336,-7.67868 10.606313,-10.23306 0.69996,-0.55459 1.272654,-1.05119 1.272654,-1.10358 0,-0.0885 -0.440533,0.21541 -2.720848,1.87713 -2.193865,1.59872 -6.160194,5.309 -10.593271,9.9094 -1.520773,1.57818 -5.702342,6.63849 -7.177769,8.68615 -1.338962,1.85827 -4.631154,6.90248 -5.619421,8.60991 -1.151391,1.98927 -4.161313,7.9092 -4.338107,8.53221 -0.08538,0.30078 -0.007,0.41469 0.381919,0.55664 0.26908,0.0982 0.568225,0.1833 0.664772,0.1892 0.09655,0.006 1.09715,-1.86393 2.223556,-4.15518 z m 60.415858,1.88075 c 0.25206,-0.19827 0.5462,-0.6539 0.65364,-1.01252 0.23113,-0.77143 0.16104,-1.69891 -0.12838,-1.69891 -0.11264,0 -0.27063,-0.0719 -0.35108,-0.1598 -0.0863,-0.0943 -0.0471,-0.10231 0.0959,-0.0194 0.16613,0.0963 0.21553,0.0638 0.15732,-0.10352 -0.0849,-0.24417 -0.67324,-0.23684 -0.83837,0.0105 -0.0483,0.0723 -0.22475,0.13023 -0.39217,0.12875 -0.23626,-0.002 -0.26019,-0.056 -0.10683,-0.24079 0.15559,-0.18747 0.13635,-0.21458 -0.0906,-0.1275 -0.15848,0.0608 -0.28813,0.26165 -0.28813,0.44629 0,0.26535 -0.0952,0.31847 -0.45424,0.25337 -0.34434,-0.0625 -0.43061,-0.0208 -0.35659,0.1721 0.0918,0.23924 -0.10615,0.34125 -0.50571,0.26064 -0.53765,-0.10847 0.24712,0.29835 1.01894,0.52822 0.54455,0.16217 0.93194,0.38415 0.96437,0.55256 0.0345,0.17911 -0.0585,0.27206 -0.25567,0.25555 -0.32586,-0.0273 -0.50883,0.43163 -0.34369,0.862 0.1385,0.36094 0.68715,0.31267 1.22123,-0.10744 z m -59.567262,-1.05346 c 0.24148,-0.16674 0.952408,-0.46236 1.579849,-0.65695 0.901818,-0.27969 1.02782,-0.35723 0.60154,-0.37021 -0.296575,-0.009 -0.913039,0.11095 -1.369933,0.26662 -0.456894,0.15568 -0.872066,0.2417 -0.922613,0.19115 -0.164283,-0.16428 1.217829,-0.99063 2.434439,-1.45552 1.322766,-0.50545 1.523073,-0.70032 0.528995,-0.51464 -1.095208,0.20459 -0.574376,-0.0229 1.009351,-0.44076 0.820639,-0.21654 1.610568,-0.46641 1.755379,-0.55527 0.462923,-0.28401 -1.86144,0.0294 -2.920667,0.39388 -1.15532,0.39749 -1.173023,0.40032 -1.026879,0.16385 0.326728,-0.52866 2.359594,-1.26923 5.02519,-1.83066 1.022776,-0.21541 2.749746,-0.91553 2.581795,-1.04666 -0.0798,-0.0624 -3.195915,0.19981 -4.098282,0.34475 -1.230976,0.19774 -0.388295,-0.34856 1.898475,-1.23078 2.96901,-1.1454 3.35917,-1.37408 4.633977,-2.71603 0.632868,-0.66619 0.644316,-0.90447 0.02256,-0.46896 -0.220824,0.15467 -0.601139,0.27477 -0.845164,0.26689 -0.406887,-0.0132 -0.392721,-0.0363 0.170713,-0.28024 0.702399,-0.30402 2.171771,-1.45403 2.033921,-1.59188 -0.05053,-0.0505 0.261056,-0.32549 0.69231,-0.61114 1.066955,-0.70672 1.139361,-0.90202 0.182317,-0.49178 -0.437501,0.18753 -1.093169,0.42314 -1.457044,0.52358 -0.363867,0.10044 -1.053991,0.30277 -1.533598,0.44961 -1.216723,0.37253 -0.768733,0.014 0.875961,-0.70091 0.758984,-0.32995 1.582036,-0.75238 1.829014,-0.93876 0.4442,-0.33521 0.428449,-0.33538 -1.459441,-0.0161 -1.04967,0.17752 -2.274051,0.44561 -2.720848,0.59575 -1.291533,0.43401 -4.263366,2.08522 -4.561727,2.53457 l -0.272173,0.40992 0.694228,-0.35326 c 0.589343,-0.2999 2.421519,-0.89879 3.678387,-1.20238 0.80386,-0.19416 -0.269855,0.29648 -1.436188,0.65628 -1.38382,0.42688 -3.045449,1.22895 -3.379233,1.63114 -0.288142,0.34719 -0.219248,0.34644 0.62494,-0.007 0.98751,-0.41314 6.396099,-1.80423 6.208607,-1.59686 -0.04853,0.0538 -1.296987,0.41972 -2.774235,0.81329 -2.890174,0.77 -4.494775,1.42509 -4.77552,1.94967 -0.156111,0.29169 -0.06456,0.2778 0.811221,-0.12315 1.004263,-0.45977 3.799154,-1.29285 4.28032,-1.27586 0.145508,0.005 -0.406887,0.20742 -1.227526,0.44951 -1.813986,0.53512 -3.400117,1.21174 -4.180576,1.78339 -0.762669,0.5586 -0.603657,0.68587 0.288377,0.23079 0.838351,-0.4277 3.371567,-1.29678 3.475859,-1.1925 0.04016,0.0402 -0.62048,0.32103 -1.468022,0.6242 -1.530356,0.54743 -3.254355,1.54919 -3.425085,1.99024 -0.04905,0.1266 0.592366,-0.10391 1.425272,-0.51225 0.832923,-0.40834 1.751372,-0.78869 2.041021,-0.84521 0.308102,-0.0601 0.122021,0.0701 -0.448487,0.31396 -1.301308,0.55615 -2.960838,1.57618 -3.501568,2.15221 l -0.438416,0.46707 0.96546,-0.38555 c 1.190761,-0.47553 1.934534,-0.69965 2.280846,-0.68729 0.145456,0.005 -0.169989,0.1499 -0.700997,0.32158 -1.211966,0.39184 -2.281883,0.93874 -2.664742,1.36212 -0.30155,0.33346 -0.729215,1.22675 -0.751492,1.56967 -0.007,0.105 -0.153915,0.33242 -0.326867,0.50537 -0.172968,0.17296 -0.27577,0.41535 -0.228447,0.53865 0.04731,0.12331 -0.06665,0.36234 -0.253215,0.53119 -0.186586,0.16886 -0.339238,0.37843 -0.339238,0.46571 0,0.16804 0.168168,0.0918 0.877912,-0.39829 z M 52.9258,242.23514 c -0.02352,-0.40248 -0.007,-0.5343 0.03668,-0.29293 0.159979,0.88318 0.403445,0.77743 0.424319,-0.18432 0.01742,-0.80498 0.04199,-0.87317 0.15477,-0.43007 0.127178,0.49982 0.136003,0.50429 0.173369,0.0878 0.06656,-0.74215 -0.02126,-1.46144 -0.26522,-2.17259 -0.144969,-0.42252 -0.160101,-0.60711 -0.0399,-0.48691 0.106469,0.10647 0.27841,0.6184 0.382092,1.13763 0.103673,0.51922 0.267495,0.93582 0.364041,0.92577 0.321475,-0.0335 0.145971,-1.63807 -0.249085,-2.27727 -0.2078,-0.33623 -0.533848,-1.0319 -0.724554,-1.54594 l -0.346748,-0.93462 0.09602,0.92372 c 0.0528,0.50804 0.138634,1.06099 0.190715,1.22877 0.07797,0.25111 0.06482,0.2585 -0.07431,0.0417 -0.09297,-0.14482 -0.225641,-0.6066 -0.294832,-1.02619 -0.09467,-0.57404 -0.1756,-0.71287 -0.326963,-0.56084 -0.135289,0.13587 -0.187579,0.96044 -0.159709,2.51826 0.04034,2.251 0.03354,2.29893 -0.241097,1.70185 -0.155397,-0.33791 -0.426533,-1.04885 -0.602507,-1.57985 l -0.319959,-0.96547 -0.01202,0.78992 c -0.007,0.43447 0.222322,1.54036 0.508757,2.45755 0.286425,0.91719 0.574097,1.9046 0.639263,2.19423 l 0.118466,0.52662 0.305627,-0.67254 c 0.171305,-0.37695 0.286809,-0.99414 0.262816,-1.4043 z m 1.968406,-4.04636 -0.09332,-1.6005 0.176898,1.27266 c 0.0973,0.69995 0.243101,1.27265 0.323983,1.27265 0.262363,0 0.339334,-0.59786 0.169502,-1.31655 -0.09127,-0.38617 -0.159945,-0.93913 -0.152627,-1.22876 0.01298,-0.51568 0.01629,-0.5175 0.153855,-0.0878 0.07728,0.24136 0.148418,0.69557 0.158036,1.00934 0.03067,0.99864 0.540905,0.57572 0.546803,-0.4532 0.0017,-0.37165 0.03912,-0.414 0.178875,-0.20507 0.153193,0.22895 0.208601,0.22092 0.424477,-0.0614 0.17749,-0.23217 0.229257,-0.68263 0.18155,-1.57985 -0.06342,-1.19288 -0.02971,-1.15397 0.195246,0.22484 0.141492,0.86758 0.408629,0.34816 0.445158,-0.86555 l 0.02901,-0.96545 0.115016,0.78992 c 0.112298,0.77122 0.118266,0.77746 0.2523,0.26331 0.213219,-0.81792 0.253347,-0.9017 0.268253,-0.56014 0.0078,0.17465 0.09285,0.26873 0.1894,0.20906 0.09655,-0.0597 0.176749,-0.79501 0.17823,-1.6341 0.0017,-0.99078 0.05898,-1.43666 0.163203,-1.27188 0.08829,0.13954 0.114302,0.64392 0.05785,1.12083 -0.08259,0.69716 -0.05436,0.85117 0.143992,0.78576 0.166139,-0.0548 0.279544,-0.47803 0.347341,-1.29637 0.08651,-1.04436 0.105015,-1.09585 0.131656,-0.36658 0.02161,0.59037 0.09774,0.8264 0.250419,0.77598 0.143269,-0.0473 0.253599,-0.61595 0.317911,-1.63835 0.08948,-1.42288 0.101504,-1.46436 0.131647,-0.45417 0.02387,0.80005 0.09469,1.09143 0.252588,1.0393 0.14327,-0.0473 0.253608,-0.61596 0.317911,-1.63836 l 0.09848,-1.56591 0.03319,1.31026 c 0.03102,1.22485 0.05236,1.29114 0.326815,1.01664 0.224683,-0.22469 0.328879,-0.8186 0.443765,-2.52934 0.08259,-1.22964 0.196744,-2.27957 0.253703,-2.33317 0.05698,-0.0536 0.04591,0.84771 -0.02457,2.00293 -0.113169,1.85452 -0.09741,2.07488 0.134636,1.8823 0.162227,-0.13464 0.319104,-0.73696 0.40991,-1.5738 l 0.147103,-1.35567 0.0925,1.04831 0.0925,1.04831 0.296532,-0.45536 c 0.26015,-0.39949 0.445977,-1.45912 0.482054,-2.74873 0.0061,-0.22294 0.07789,-0.36418 0.159308,-0.31388 0.08137,0.0503 0.115208,0.58817 0.07518,1.19525 -0.05384,0.81503 -0.02126,1.05322 0.12433,0.91047 0.231444,-0.22692 0.709151,-1.8041 0.832348,-2.74804 0.125052,-0.95815 0.323626,-0.94386 0.248188,0.0179 -0.0352,0.44937 -0.1409,0.86548 -0.23478,0.92467 -0.09388,0.0592 -0.137868,0.29616 -0.09776,0.52661 0.06639,0.38102 0.100842,0.35673 0.380829,-0.26808 0.169345,-0.3779 0.381509,-1.14415 0.471469,-1.70277 0.08996,-0.55863 0.24358,-1.19736 0.341364,-1.41938 0.159448,-0.36202 0.169223,-0.34735 0.09466,0.14219 -0.04574,0.30024 -0.135054,0.97168 -0.198495,1.49208 -0.111104,0.91131 -0.104622,0.93166 0.175818,0.55174 0.160153,-0.21694 0.413395,-1.16485 0.562763,-2.10645 0.149368,-0.94162 0.346303,-1.83052 0.437632,-1.97534 0.129783,-0.20579 0.147033,-0.18663 0.07893,0.0878 -0.164431,0.6626 -0.460301,3.12639 -0.384532,3.20216 0.217714,0.21771 0.682022,-0.98661 0.900354,-2.33536 0.1363,-0.84195 0.296697,-1.5789 0.356436,-1.63766 0.09995,-0.0983 0.02413,0.72711 -0.208035,2.26293 -0.08642,0.572 -0.07257,0.5946 0.200499,0.32757 0.161347,-0.15775 0.410406,-0.90674 0.553475,-1.66444 0.281539,-1.49106 0.636005,-2.40164 0.470416,-1.20844 -0.05358,0.38619 -0.168213,0.97863 -0.254714,1.31654 -0.225572,0.8812 -0.200534,0.96948 0.177821,0.62708 0.185384,-0.16776 0.430601,-0.7132 0.544929,-1.21209 0.3211,-1.40107 0.921603,-3.46271 0.988965,-3.39533 0.03328,0.0333 -0.09764,0.67859 -0.29086,1.43409 -0.193225,0.75551 -0.351313,1.57542 -0.351313,1.82203 0,0.79359 0.514175,0.0346 0.890091,-1.31393 l 0.337112,-1.20931 -0.07876,0.92157 c -0.04356,0.51002 -0.0052,0.92158 0.0852,0.92158 0.163726,0 0.194558,-0.095 0.512756,-1.57985 0.224962,-1.04979 0.686064,-2.28606 0.687458,-1.84314 4.18e-4,0.19308 -0.10119,0.82502 -0.226191,1.4043 -0.125009,0.57928 -0.199444,1.08564 -0.165389,1.12525 0.199123,0.23168 0.764969,-0.88269 1.108502,-2.18311 0.433494,-1.64096 0.698897,-1.92964 0.352986,-0.38396 -0.117569,0.52536 -0.176227,1.06469 -0.130349,1.19851 0.130314,0.38015 0.749914,-0.75814 1.015666,-1.86593 0.127605,-0.53191 0.329368,-1.04792 0.448357,-1.14669 0.169057,-0.1403 0.167881,-0.0343 -0.0052,0.48496 -0.380498,1.14032 -0.474292,1.66962 -0.273906,1.54577 0.31291,-0.19338 0.658534,-1.01146 0.878783,-2.08007 0.116001,-0.5628 0.253642,-0.98054 0.30588,-0.9283 0.08355,0.0835 -0.114921,1.08814 -0.420208,2.12711 -0.101765,0.34629 -0.09805,0.34651 0.271981,0.0159 0.206336,-0.18428 0.458157,-0.65824 0.559627,-1.05323 0.294745,-1.14741 0.721966,-2.41407 0.790948,-2.34508 0.03485,0.0349 -0.04034,0.41522 -0.167158,0.84518 -0.12683,0.42996 -0.283673,1.05715 -0.348551,1.39377 -0.207625,1.07728 0.321474,0.25041 0.840929,-1.31419 0.256422,-0.77238 0.578994,-1.60179 0.716827,-1.84316 0.276703,-0.48454 0.362978,-0.33917 0.09542,0.16077 -0.0922,0.17227 -0.324175,0.87811 -0.5155,1.56853 -0.330822,1.19382 -0.332242,1.24695 -0.02901,1.08467 0.35086,-0.18778 0.793065,-1.16568 0.98162,-2.17078 0.06673,-0.35588 0.191429,-0.69035 0.277034,-0.74325 0.194644,-0.1203 0.199915,-0.16972 -0.103281,0.96959 -0.140125,0.52652 -0.21172,1.00035 -0.159108,1.05296 0.190941,0.19095 0.571971,-0.57507 1.104799,-2.22108 0.299224,-0.92439 0.784206,-2.1533 1.077732,-2.73092 0.293526,-0.57761 0.503224,-1.08066 0.465998,-1.11789 -0.144899,-0.14489 -0.707026,0.66527 -1.374699,1.98125 -0.384026,0.75693 -0.644464,1.17875 -0.578749,0.93738 0.06578,-0.24137 0.306733,-0.81143 0.535607,-1.26682 0.228857,-0.45538 0.416105,-0.88233 0.416105,-0.94878 0,-0.3328 -0.802762,0.67115 -1.259456,1.5751 -0.285406,0.56491 -0.558546,0.98748 -0.606994,0.93903 -0.04844,-0.0484 0.116044,-0.4909 0.365531,-0.98323 0.249487,-0.49233 0.404395,-0.89515 0.344256,-0.89515 -0.06011,0 -0.420251,0.24625 -0.800235,0.54719 -0.506971,0.40153 -0.920375,1.02068 -1.552991,2.32589 -0.973666,2.00886 -1.201111,2.08343 -0.278358,0.0913 0.330117,-0.7127 0.569001,-1.32703 0.530859,-1.36518 -0.180173,-0.18016 -0.611454,0.4576 -1.146286,1.69504 -0.553397,1.28042 -1.186632,2.49857 -1.298843,2.49857 -0.02779,0 0.256448,-0.71221 0.631727,-1.58268 0.37528,-0.87046 0.682327,-1.63465 0.682327,-1.69821 0,-0.0636 -0.197475,0.07 -0.438842,0.29673 -0.241367,0.22675 -0.438852,0.51699 -0.438852,0.64499 0,0.12799 -0.09874,0.21296 -0.219421,0.18882 -0.122945,-0.0246 -0.639847,0.7922 -1.175637,1.8577 -0.764952,1.52127 -0.982013,1.83183 -1.085224,1.55281 -0.110094,-0.29761 0.177272,-2.17693 0.461102,-3.01555 0.0514,-0.15171 -0.02283,-0.11857 -0.175156,0.0781 -0.14536,0.18782 -0.39354,0.80216 -0.551524,1.3652 -0.157975,0.56305 -0.320916,0.99007 -0.362072,0.9489 -0.0683,-0.0683 0.17086,-1.10894 0.421218,-1.83275 0.08407,-0.24314 0.03624,-0.2333 -0.267346,0.0549 -0.222218,0.21094 -0.510299,0.91158 -0.721775,1.75538 -0.268862,1.07278 -0.329036,1.20217 -0.254853,0.54806 0.0534,-0.47094 0.138678,-0.96464 0.189513,-1.09712 0.17979,-0.46853 -0.26022,-0.23137 -0.937267,0.50517 -0.635779,0.69164 -0.702591,0.86538 -0.916376,2.38272 -0.12683,0.90016 -0.267643,1.59962 -0.312928,1.55432 -0.0453,-0.0453 0.007,-0.7308 0.114973,-1.52338 0.108517,-0.79257 0.159317,-1.47904 0.112882,-1.52548 -0.152269,-0.15226 -0.460135,0.60575 -0.632494,1.55727 l -0.169127,0.93367 0.0595,-0.83381 c 0.06029,-0.84535 -0.09872,-1.08657 -0.347209,-0.52661 -0.07501,0.16896 -0.318355,0.97863 -0.540843,1.79928 -0.370611,1.36699 -0.414476,1.15412 -0.123067,-0.59739 0.07553,-0.45411 0.05271,-0.64724 -0.06787,-0.57274 -0.310428,0.19186 -0.858615,1.54085 -1.278849,3.14704 -0.221321,0.84594 -0.4346,1.50588 -0.47397,1.46652 -0.03929,-0.0393 0.09268,-0.76307 0.293413,-1.60826 0.200734,-0.84519 0.329454,-1.57222 0.286042,-1.61563 -0.184042,-0.18404 -1.02058,1.84554 -1.411794,3.42524 -0.232795,0.94003 -0.428406,1.50995 -0.434687,1.2665 -0.007,-0.24346 0.141109,-0.99275 0.327546,-1.6651 0.186438,-0.67234 0.317084,-1.24433 0.290329,-1.27109 -0.169885,-0.16988 -1.222212,2.65543 -1.527151,4.10014 -0.201561,0.95493 -0.408803,1.77573 -0.460544,1.824 -0.148044,0.13813 0.117551,-4.08539 0.296044,-4.70778 0.08808,-0.30711 0.128938,-0.55838 0.09081,-0.55838 -0.189295,0 -0.50244,0.9012 -0.786122,2.26235 -0.173291,0.83146 -0.321012,1.31425 -0.328278,1.07289 -0.007,-0.24137 0.09055,-0.93403 0.217374,-1.53925 l 0.230582,-1.10041 -0.396877,0.37285 c -0.297229,0.27922 -0.471452,0.78695 -0.693818,2.02198 -0.163316,0.90702 -0.337278,1.64914 -0.386588,1.64914 -0.08814,0 0.04966,-1.27836 0.253477,-2.35051 l 0.103742,-0.54588 -0.436577,0.39967 c -0.354232,0.32429 -0.478213,0.68852 -0.657306,1.93093 -0.233831,1.62214 -0.331153,2.06335 -0.430392,1.95133 -0.03363,-0.038 0.01037,-0.65228 0.09764,-1.36516 0.174424,-1.42373 0.120375,-1.66564 -0.233447,-1.04476 -0.164187,0.28811 -0.233648,1.14864 -0.233648,2.89465 0,1.36656 -0.05924,2.44805 -0.131657,2.4033 -0.0724,-0.0448 -0.131656,-1.15277 -0.131656,-2.46227 0,-2.0591 -0.03432,-2.35237 -0.254322,-2.16983 -0.413229,0.34295 -0.663596,1.36161 -0.797038,3.24299 -0.129609,1.82743 -0.248973,1.57702 -0.203487,-0.42692 0.03973,-1.75196 -0.315602,-0.68595 -0.497405,1.49208 l -0.14651,1.75539 0.02779,-1.79086 c 0.01525,-0.98497 -0.02823,-1.7347 -0.09664,-1.66605 -0.06848,0.0686 -0.254992,0.63442 -0.414571,1.25726 -0.220641,0.86128 -0.273113,1.67847 -0.219073,3.41249 l 0.071,2.28002 -0.409606,-0.90266 c -0.225267,-0.49647 -0.465641,-1.32186 -0.534152,-1.83421 -0.110233,-0.82437 -0.135681,-0.6993 -0.221199,1.08716 l -0.09665,2.01869 -0.04034,-2.10646 c -0.04513,-2.35356 -0.149141,-2.36558 -0.734686,-0.0849 -0.388836,1.51458 -0.403829,2.73606 -0.06943,5.65525 0.187823,1.63969 0.477707,1.00781 0.371699,-0.81022 z m 6.493065,-2.80675 c 1.836436,-0.90989 3.364571,-1.46733 4.617545,-1.68439 1.843118,-0.31927 2.898695,-0.67199 4.032567,-1.34743 0.585971,-0.34906 1.101794,-0.69354 1.146277,-0.76551 0.04443,-0.072 -0.88036,0.17363 -2.055187,0.54576 -1.174835,0.37215 -2.161282,0.65139 -2.192105,0.62057 -0.03084,-0.0308 0.505917,-0.27653 1.192756,-0.546 1.232919,-0.48372 2.859021,-1.31607 2.756027,-1.41073 -0.02918,-0.0268 -1.15891,0.13069 -2.510565,0.34997 -3.291216,0.53394 -6.109691,1.49329 -6.769985,2.30435 -0.227741,0.27973 -0.218315,0.2951 0.09951,0.16223 1.044172,-0.43656 3.734746,-1.30864 4.037402,-1.30864 0.193085,0 -0.39936,0.25618 -1.316554,0.5693 -1.798723,0.61405 -3.534718,1.48175 -3.642573,1.82065 -0.0372,0.11704 0.594405,-0.0564 1.424009,-0.39085 0.820029,-0.33066 1.832394,-0.64363 2.249718,-0.69548 0.693887,-0.0863 0.668701,-0.0666 -0.29445,0.22953 -1.28946,0.39643 -3.181723,1.28411 -3.77408,1.77043 -0.62292,0.51141 -0.369713,0.45474 0.999689,-0.22376 z m 2.887805,-3.54837 c 0.641659,-0.2183 2.418993,-0.60387 3.949628,-0.85685 1.594704,-0.26355 3.109988,-0.61737 3.548875,-0.82863 0.912289,-0.43916 2.756662,-1.88522 3.327161,-2.60862 l 0.406757,-0.51578 -0.816153,0.34984 c -0.981228,0.42062 -3.025559,0.94326 -4.824674,1.23348 -0.724101,0.1168 -1.829989,0.36992 -2.457543,0.56248 -1.281315,0.39318 -3.766571,1.59305 -3.965145,1.91435 -0.09264,0.14988 -0.03354,0.17122 0.206144,0.0745 1.724322,-0.69604 5.759581,-1.66827 5.98571,-1.44216 0.04574,0.0457 -0.377336,0.17081 -0.940133,0.27797 -2.009153,0.38252 -3.263285,0.76914 -4.614444,1.42254 -0.754044,0.36465 -1.432607,0.76269 -1.507897,0.88453 -0.101748,0.16461 -0.05062,0.18398 0.19907,0.0754 0.1848,-0.0803 0.860985,-0.32471 1.502644,-0.54301 z m 3.748432,-3.03701 c 0.868921,-0.19566 2.488263,-0.54871 3.598542,-0.78455 3.321944,-0.70566 4.157585,-1.10605 5.132122,-2.45906 l 0.362229,-0.50292 -0.421288,0.13567 c -1.203019,0.3874 -3.493213,0.90389 -3.493213,0.78781 0,-0.0733 0.375218,-0.27574 0.833811,-0.4499 1.634884,-0.62086 5.485578,-3.40015 5.485578,-3.95931 0,-0.064 -0.572686,0.18772 -1.272654,0.55929 -1.932217,1.0257 -1.821548,0.81691 0.218533,-0.41231 1.778606,-1.07166 2.447054,-1.69906 1.557625,-1.46198 -0.228656,0.061 0.102392,-0.16124 0.735653,-0.49373 0.63326,-0.3325 1.265197,-0.74286 1.404311,-0.91193 0.234458,-0.28493 0.208061,-0.29952 -0.361463,-0.19979 -0.649883,0.11381 -0.517495,0.0278 0.702156,-0.4562 0.591181,-0.23459 0.564653,-0.24094 -0.702156,-0.16797 -0.724092,0.0417 -1.665654,0.1881 -2.092344,0.3253 -1.012957,0.32572 -1.134446,0.1937 -0.156747,-0.17033 l 0.757015,-0.28186 -0.702155,0.0793 -0.702155,0.0793 0.78992,-0.25043 c 0.434469,-0.13774 1.531716,-0.45437 2.438351,-0.70362 1.127747,-0.31005 1.977572,-0.67671 2.690486,-1.16085 0.573148,-0.38921 1.01037,-0.73937 0.97161,-0.77812 -0.03877,-0.0388 -0.531573,0.0497 -1.095146,0.19643 -0.563582,0.14679 -1.108258,0.23903 -1.210407,0.20499 -0.10214,-0.0341 0.356043,-0.19799 1.018184,-0.36432 1.3383,-0.33617 2.028259,-0.64753 2.38357,-1.07565 0.21023,-0.25331 0.188764,-0.2748 -0.188328,-0.18844 -1.446555,0.33127 -2.149294,0.45367 -2.216847,0.38611 -0.04243,-0.0424 0.185339,-0.13054 0.506021,-0.19595 1.303878,-0.26593 2.445042,-0.70182 2.785116,-1.06383 l 0.360287,-0.38349 -0.917326,0.23795 c -0.504523,0.13087 -0.950788,0.20447 -0.9917,0.16357 -0.04095,-0.041 0.269316,-0.16226 0.689384,-0.26966 1.151635,-0.29447 1.672313,-0.52719 2.007047,-0.89706 0.379993,-0.41989 0.152051,-0.43502 -1.051764,-0.0699 -1.336243,0.40537 -1.548451,0.29072 -0.31196,-0.16855 0.60959,-0.22641 1.162537,-0.46978 1.228774,-0.54083 0.226356,-0.24278 -5.507378,0.0419 -5.91017,0.29345 -0.578828,0.36149 -0.450796,0.46903 0.369477,0.31034 0.410329,-0.0794 1.377975,-0.13798 2.150349,-0.13023 l 1.404311,0.014 -2.180257,0.23782 c -2.318535,0.25291 -3.198416,0.46648 -3.520491,0.85456 -0.168552,0.2031 -0.05541,0.20409 0.731994,0.007 1.071842,-0.26905 3.237123,-0.44384 2.907721,-0.23472 -0.121533,0.0772 -0.439034,0.14148 -0.705562,0.14296 -1.258053,0.007 -4.775817,1.04768 -4.479851,1.32533 0.02718,0.0254 0.602306,-0.0727 1.278134,-0.21796 0.675819,-0.14536 1.979192,-0.28567 2.896386,-0.3118 l 1.667615,-0.0475 -1.579849,0.13126 c -1.703204,0.1415 -3.47349,0.51557 -4.630135,0.97837 -1.000412,0.40029 -0.908325,0.59901 0.150309,0.3244 0.480756,-0.12471 1.645896,-0.26838 2.5892,-0.31926 l 1.715087,-0.0925 -1.755389,0.24433 c -2.082029,0.2898 -3.781094,0.67596 -4.235827,0.96272 -0.270605,0.17064 -0.1896,0.18969 0.461755,0.10856 0.434461,-0.0541 1.540349,-0.1286 2.457535,-0.16553 0.917195,-0.0369 1.351647,-0.0363 0.965468,8.7e-4 -2.741207,0.26785 -5.442357,0.9128 -5.130231,1.22492 0.04443,0.0444 0.457992,-0.003 0.918998,-0.10705 0.461015,-0.10333 1.597143,-0.22163 2.524722,-0.2629 l 1.686511,-0.0751 -1.579849,0.23283 c -2.318665,0.34171 -4.256571,0.8063 -4.478449,1.07363 -0.160833,0.19379 -0.03642,0.19275 0.717183,-0.006 0.501491,-0.1323 1.355445,-0.27934 1.897683,-0.32678 0.542237,-0.0475 0.788404,-0.0459 0.547037,0.003 -2.606685,0.53194 -4.78811,1.30224 -4.500978,1.58937 0.0514,0.0514 0.467305,-0.0339 0.924199,-0.18956 0.456885,-0.15568 1.15235,-0.27229 1.545472,-0.25914 0.456737,0.0152 0.55635,0.0503 0.275927,0.0972 -0.805471,0.13455 -3.777103,1.16499 -3.56439,1.23598 0.11533,0.0385 0.367621,-0.0146 0.560654,-0.11786 0.424276,-0.22706 4.423006,-1.10725 4.532568,-0.99769 0.09761,0.0976 -0.21835,0.18741 -1.967683,0.5593 -1.577741,0.3354 -3.438789,1.01637 -4.179147,1.52917 -0.705327,0.48853 -0.482995,0.54676 0.543265,0.14225 0.937555,-0.36957 3.692005,-0.98258 3.823618,-0.85097 0.04269,0.0427 -0.362953,0.17635 -0.901566,0.2969 -2.303166,0.51542 -5.161045,1.70536 -5.165515,2.15077 -8.36e-4,0.0657 0.481079,-0.0766 1.070535,-0.31612 1.099024,-0.44657 5.152988,-1.48036 5.720838,-1.45885 0.174206,0.007 -0.710153,0.27262 -1.965261,0.59115 -2.675118,0.67891 -5.007069,1.54834 -5.660542,2.11043 -0.447685,0.38508 -0.4091,0.38107 1.106263,-0.11489 2.007532,-0.65703 4.963318,-1.40911 5.212125,-1.32617 0.105529,0.0352 -0.828733,0.32591 -2.07614,0.64607 -2.930093,0.75205 -4.768908,1.48019 -5.427712,2.1493 -0.41289,0.41936 -0.443626,0.49268 -0.142329,0.33949 0.211354,-0.10745 0.882791,-0.30877 1.492076,-0.44736 0.609285,-0.13861 1.976718,-0.45152 3.038724,-0.69539 1.062006,-0.24385 2.088911,-0.43908 2.281996,-0.43386 0.440332,0.0119 -8.71e-4,0.13236 -3.15969,0.86172 -2.610789,0.6029 -4.348283,1.2771 -4.901915,1.90211 l -0.337906,0.38147 0.688983,-0.29008 c 1.28696,-0.54186 7.382041,-2.12336 7.547134,-1.95829 0.04321,0.0432 -1.20579,0.41408 -2.775455,0.82425 -3.329296,0.86999 -6.524715,2.10478 -6.22428,2.40523 0.03363,0.0336 0.996404,-0.25637 2.139519,-0.64443 1.143107,-0.38805 2.164157,-0.67692 2.268998,-0.64191 0.104841,0.035 -0.480826,0.28658 -1.301465,0.55905 -1.712194,0.56848 -4.037393,1.64467 -4.037393,1.86869 0,0.21228 0.03964,0.20357 1.270807,-0.2792 1.628777,-0.6387 5.854089,-1.63069 6.06167,-1.42311 0.05428,0.0543 0.02631,0.0996 -0.0622,0.10075 -0.0885,8.7e-4 -1.148325,0.23023 -2.355151,0.50909 -1.99131,0.46012 -5.022516,1.54087 -5.573352,1.98713 -0.545504,0.44194 -0.124826,0.42385 0.877695,-0.0377 0.603413,-0.27783 1.808052,-0.66523 2.676965,-0.86088 z M 81.009,211.23001 c 0.05663,-0.0916 0.491028,-0.37779 0.965329,-0.63595 0.582574,-0.31707 1.062773,-0.77117 1.48001,-1.39958 0.901913,-1.35838 2.779671,-3.64481 3.607741,-4.39292 0.395353,-0.35717 0.679687,-0.68851 0.631876,-0.73633 -0.181324,-0.18133 -1.117145,0.57899 -2.620581,2.12911 -0.856489,0.88308 -1.385998,1.35126 -1.176718,1.0404 0.20929,-0.31085 0.448679,-0.60731 0.531992,-0.6588 0.08329,-0.0515 0.494339,-0.50401 0.913405,-1.0056 l 0.761937,-0.91201 -0.768427,0.4298 c -0.848318,0.47448 -1.876486,1.54608 -3.275604,3.41396 -0.795653,1.06224 -1.836515,2.85322 -1.836515,3.16003 0,0.13649 0.657758,-0.22533 0.785555,-0.43211 z m 7.076222,-0.53988 c 1.235065,-0.20042 2.779474,-0.73416 3.295435,-1.13889 0.317293,-0.24889 0.292577,-0.26102 -0.361575,-0.17749 -0.620829,0.0793 -0.58578,0.0515 0.302595,-0.23997 1.160086,-0.3806 2.359464,-1.04727 2.840638,-1.57896 0.408595,-0.45149 0.408778,-0.45148 -0.729581,-0.0188 -0.506866,0.19266 -0.921577,0.28411 -0.921577,0.20323 0,-0.0808 0.296218,-0.23579 0.658273,-0.34428 0.777253,-0.23291 2.325888,-1.18147 2.325888,-1.42465 0,-0.0934 -0.430357,0.0206 -0.956355,0.25321 -1.195135,0.52854 -3.683877,1.33708 -5.977425,1.94195 -0.965471,0.25462 -1.952876,0.57689 -2.194234,0.71617 -0.427299,0.24656 -0.420364,0.25097 0.263304,0.16742 2.05607,-0.25128 2.473481,-0.27874 1.843165,-0.12127 -0.337917,0.0844 -1.180153,0.24637 -1.871627,0.35989 -0.691492,0.11352 -1.402412,0.3246 -1.57985,0.46905 -0.296923,0.24173 -0.273688,0.25401 0.291775,0.1542 0.337914,-0.0597 1.285818,-0.14034 2.106466,-0.17933 l 1.492079,-0.0709 -1.316549,0.1565 c -1.553339,0.18465 -3.335377,0.58514 -3.796984,0.85333 -0.439383,0.25527 2.744152,0.26984 4.286139,0.0196 z m -3.289718,-1.76875 c 0.58152,-0.39694 1.89662,-1.14818 2.922445,-1.6694 1.025836,-0.52124 1.990764,-1.04563 2.144296,-1.16533 0.246899,-0.19251 0.251325,-0.18216 0.03816,0.0896 -0.132502,0.16895 -0.204027,0.30718 -0.158934,0.30718 0.04513,0 1.555621,-0.71128 3.356731,-1.58062 3.042757,-1.46864 3.750079,-1.93015 2.958268,-1.93015 -0.36655,0 -2.780325,1.14064 -3.912489,1.84885 -0.691135,0.43234 -0.73635,0.44182 -0.422813,0.0888 0.193094,-0.21743 1.141007,-0.7798 2.106466,-1.2497 1.414705,-0.68856 1.652221,-0.85526 1.223815,-0.85892 -0.582539,-0.004 -2.821167,1.00254 -3.725241,1.67659 -1.561023,1.16383 -1.86753,1.36537 -1.644371,1.0812 0.363806,-0.46326 1.854932,-1.51946 3.069416,-2.17412 0.923851,-0.49801 1.006981,-0.58079 0.58666,-0.58422 -0.977586,-0.008 -2.905447,1.20625 -4.853049,3.05655 -1.294768,1.23007 -1.29861,1.23216 -0.471759,0.25689 0.458482,-0.5408 1.401377,-1.40566 2.0953,-1.92189 1.701069,-1.26548 1.71168,-1.2775 0.998382,-1.12957 -1.118905,0.23201 -1.647865,0.62552 -3.853581,2.86678 -1.202279,1.22165 -1.834215,1.79024 -1.404302,1.26355 0.429904,-0.5267 1.349251,-1.53386 2.042999,-2.23812 0.810902,-0.8232 1.15568,-1.28106 0.965462,-1.28212 -0.162741,-8.4e-4 -1.125311,0.85425 -2.139052,1.90033 -1.815101,1.87304 -3.522756,4.06962 -3.163759,4.06962 0.100964,0 0.659371,-0.32478 1.24089,-0.72171 z m 4.267307,-1.1295 c 3.679808,-0.92583 6.952955,-2.26213 7.275649,-2.97038 0.11141,-0.24451 0.163002,-0.44457 0.114659,-0.44457 -0.04835,0 -0.698339,0.30563 -1.44443,0.67918 -1.807834,0.90513 -4.228422,1.86184 -5.780166,2.28455 -0.695177,0.18938 -1.406108,0.42703 -1.579852,0.52811 -0.301716,0.17554 -0.301271,0.18404 0.0098,0.18914 0.179154,0.003 0.811093,-0.11678 1.404313,-0.26603 z"
       id="path113-3" />
  </g>
</svg>
