<?xml version="1.0" encoding="UTF-8"?>
<svg height="128pt" viewBox="0 0 128 128" width="128pt" xmlns:xlink="http://www.w3.org/1999/xlink" xmlns="http://www.w3.org/2000/svg" version="1.1" xmlns:inkscape="http://www.inkscape.org/namespaces/inkscape">
 <defs>
  <clipPath id="Clip0">
   <path d="M-4 28 L28 -4 L108 -4 L108 108 L-4 108 L-4 28 Z"/>
  </clipPath>
  <clipPath id="Clip1">
   <path d="M-4 28 L28 -4 L108 -4 L108 108 L-4 108 L-4 28 Z"/>
  </clipPath>
  <linearGradient y2="114" x2="128.336" gradientUnits="userSpaceOnUse" x1="90.3358" y1="92" gradientTransform="matrix(1 0 0 1 0 0)" id="Grad0">
   <stop stop-opacity="1" offset="0%" stop-color="#9a9996"/>
   <stop stop-opacity="1" offset="9.09091%" stop-color="#bcbcbc"/>
   <stop stop-opacity="1" offset="100%" stop-color="#f4f4f4"/>
  </linearGradient>
  <linearGradient y2="90.352" x2="90.998" gradientUnits="userSpaceOnUse" x1="53.04" y1="65.1315" gradientTransform="matrix(1 0 0 1 0 0)" id="Grad1">
   <stop stop-opacity="1" offset="0%" stop-color="#f6f5f4"/>
   <stop stop-opacity="1" offset="100%" stop-color="#e1dedc"/>
  </linearGradient>
  <clipPath id="Clip2">
   <path d="M0 0 L20 0 L20 90.0002 L0 90.0002 L0 0 Z"/>
  </clipPath>
  <linearGradient y2="-0.293358" x2="18" gradientUnits="userSpaceOnUse" x1="10" y1="-4.29336" gradientTransform="matrix(1 0 0 1 0 0)" id="Grad2">
   <stop stop-opacity="1" offset="0%" stop-color="#3d3846"/>
   <stop stop-opacity="1" offset="100%" stop-color="#241e30"/>
  </linearGradient>
  <linearGradient y2="77.707" x2="10" gradientUnits="userSpaceOnUse" x1="2" y1="73.707" gradientTransform="matrix(1 0 0 1 0 0)" id="Grad3">
   <stop stop-opacity="1" offset="0%" stop-color="#3d3846"/>
   <stop stop-opacity="1" offset="100%" stop-color="#241e30"/>
  </linearGradient>
  <linearGradient y2="81.707" x2="18" gradientUnits="userSpaceOnUse" x1="10" y1="77.707" gradientTransform="matrix(1 0 0 1 0 0)" id="Grad4">
   <stop stop-opacity="1" offset="0%" stop-color="#3d3846"/>
   <stop stop-opacity="1" offset="100%" stop-color="#241e30"/>
  </linearGradient>
  <linearGradient y2="1e-05" x2="4" gradientUnits="userSpaceOnUse" x1="15.8321" y1="12" gradientTransform="matrix(1 0 0 1 0 0)" id="Grad5">
   <stop stop-opacity="1" offset="0%" stop-color="#afafaf"/>
   <stop stop-opacity="1" offset="8.66702%" stop-color="#a7a6a3"/>
   <stop stop-opacity="1" offset="19.0831%" stop-color="#c9c9c7"/>
   <stop stop-opacity="1" offset="62.5963%" stop-color="#fffffe"/>
   <stop stop-opacity="1" offset="100%" stop-color="#f4f4f4"/>
  </linearGradient>
 </defs>
 <g inkscape:label="icons" inkscape:groupmode="layer" id="icons">
  <g transform="translate(12.0106, 12.1575) scale(1, 1)" clip-path="url(#Clip0)" clip-rule="evenodd" style="fill:none; stroke:none" id="g14">
   <path d="M104 8 C104 3.58172 98.9856 0 92.8 0 L11.2 0 C5.01441 0 0 3.58172 0 8 L0 96 C0 100.418 5.01441 104 11.2 104 L92.8 104 C98.9856 104 104 100.418 104 96 L104 8 Z" transform="translate(0, 0)" style="fill:#9a9996; fill-rule:evenodd;stroke:none;"/>
  </g>
  <g transform="translate(12.0106, 10.1575) scale(1, 1)" clip-path="url(#Clip1)" clip-rule="evenodd" style="fill:none; stroke:none" id="g15">
   <path d="M104 8 C104 3.58172 98.9856 0 92.8 0 L11.2 0 C5.01441 0 0 3.58172 0 8 L0 96 C0 100.418 5.01441 104 11.2 104 L92.8 104 C98.9856 104 104 100.418 104 96 L104 8 Z" transform="translate(0, 0)" style="fill:url(#Grad0); fill-rule:evenodd;stroke:none;"/>
  </g>
  <path d="M8 104 L78.3454 104 L104 80 L104 8 C104 3.568 100.432 0 96 0 L8 0 C3.568 0 0 3.568 0 8 L0 96 C0 100.432 3.568 104 8 104 Z" transform="translate(12.0106, 8.15746)" style="fill:url(#Grad1); fill-rule:nonzero;stroke:none;"/>
  <path d="M10.019 0 L65.4739 0 L65.4739 56 L10.019 56 C4.48566 56 0 51.5143 0 45.981 L0 10.019 C-1.42109e-14 4.48566 4.48566 0 10.019 0 L10.019 0 Z" transform="translate(20.3465, 32.1765)" style="fill:#3484e4; fill-rule:nonzero;stroke:none;"/>
  <g transform="translate(76.3465, 14.4505) scale(1, 1)" clip-path="url(#Clip2)" clip-rule="evenodd" style="fill:none; stroke:none" id="g9">
   <path d="M2 7.99961 C0.892 7.99961 0 7.10761 0 5.99961 C0 4.89161 0.892 3.99961 2 3.99961 L5.17188 3.99961 L8.58594 0.585552 C9.367 -0.195184 10.633 -0.195184 11.4141 0.585552 L14.8281 3.99961 L18 3.99961 C19.108 3.99961 20 4.89161 20 5.99961 C20 7.10761 19.108 7.99961 18 7.99961 L14 7.99961 C13.9158 7.99961 13.8334 7.99161 13.752 7.98201 C13.7376 7.98017 13.7233 7.97817 13.709 7.97601 C13.6366 7.96551 13.5657 7.95101 13.4961 7.93301 C13.4863 7.93042 13.4765 7.92775 13.4668 7.92501 C13.3942 7.90511 13.3229 7.88231 13.2539 7.85471 C13.2474 7.85171 13.2408 7.84971 13.2344 7.84671 C13.2305 7.84472 13.2266 7.84272 13.2227 7.84071 C13.0643 7.77411 12.9175 7.68787 12.7832 7.58485 C12.7166 7.53375 12.6533 7.4778 12.5937 7.41883 C12.5699 7.39523 12.5442 7.37333 12.5215 7.34853 L10 4.82773 L7.48047 7.34727 C7.45717 7.37287 7.43084 7.39517 7.40625 7.41957 C7.34656 7.47867 7.28356 7.53437 7.2168 7.58559 C7.14775 7.63859 7.0758 7.68835 7 7.73207 C6.92705 7.77417 6.85188 7.81067 6.77344 7.8434 C6.76374 7.8474 6.75391 7.8514 6.74414 7.8551 C6.67953 7.8809 6.61269 7.9025 6.54492 7.9215 C6.52935 7.92626 6.51373 7.93083 6.49805 7.9352 C6.4305 7.9524 6.36116 7.966 6.29102 7.9762 C6.27672 7.97836 6.26239 7.98036 6.24805 7.9822 C6.16644 7.9923 6.08442 7.9998 6 7.9998 L2 7.99961 Z" transform="translate(0, 82.0004)" style="fill:url(#Grad2); fill-rule:nonzero;stroke:none;"/>
   <path d="M0 2 C0 0.895431 0.895431 0 2 0 C3.10457 0 4 0.895431 4 2 L4 80 C4 81.1046 3.10457 82 2 82 C0.895431 82 0 81.1046 0 80 L0 2 Z" transform="translate(8, 4)" style="fill:url(#Grad3); fill-rule:evenodd;stroke:none;"/>
   <path d="M2 0 C0.892 0 0 0.892 0 2 C0 3.108 0.892 4 2 4 L5.17188 4 L8.58594 7.41406 C9.367 8.1948 10.633 8.1948 11.4141 7.41406 L14.8281 4 L18 4 C19.108 4 20 3.108 20 2 C20 0.892 19.108 0 18 0 L14 0 C13.9158 0 13.8334 0.008 13.752 0.0176 C13.7376 0.0194446 13.7233 0.0214447 13.709 0.0236 C13.6366 0.0341 13.5657 0.0486 13.4961 0.0666 C13.4863 0.0691925 13.4765 0.0718592 13.4668 0.0746 C13.3942 0.0945 13.3229 0.1173 13.2539 0.1449 C13.2474 0.1479 13.2408 0.1499 13.2344 0.1529 C13.2305 0.154887 13.2266 0.156887 13.2227 0.1589 C13.0643 0.2255 12.9175 0.31174 12.7832 0.41476 C12.7166 0.46586 12.6533 0.52181 12.5937 0.58078 C12.5699 0.60438 12.5442 0.62628 12.5215 0.65108 L10 3.17188 L7.48047 0.65234 C7.45717 0.62674 7.43084 0.60444 7.40625 0.58004 C7.34656 0.52094 7.28356 0.46524 7.2168 0.41402 C7.14775 0.36102 7.0758 0.31126 7 0.26754 C6.92705 0.22544 6.85188 0.18894 6.77344 0.15621 C6.76374 0.15221 6.75391 0.14821 6.74414 0.14451 C6.67953 0.11871 6.61269 0.09721 6.54492 0.07811 C6.52935 0.0733528 6.51373 0.0687858 6.49805 0.06441 C6.4305 0.04721 6.36116 0.03361 6.29102 0.02341 C6.27672 0.0212547 6.26239 0.0192546 6.24805 0.01741 C6.16643 0.00752 6.08442 0 6 0 L2 0 Z" transform="translate(0, 0)" style="fill:url(#Grad4); fill-rule:nonzero;stroke:none;"/>
  </g>
  <path d="M0 37.0581 L0 0 L24.9209 0 L24.9209 4.84989 L5.52141 4.84989 L5.52141 15.7683 L23.4784 15.7683 L23.4784 20.5685 L5.52141 20.5685 L5.52141 32.2082 L24.9209 32.2082 L24.9209 37.0581 L0 37.0581 M39.6696 37.5804 C37.398 37.5804 35.4 37.0084 33.6756 35.8643 C31.9678 34.7036 30.6413 33.1036 29.6962 31.0641 C28.7511 29.0081 28.2786 26.6288 28.2786 23.9261 C28.2786 21.2234 28.7511 18.8524 29.6962 16.8129 C30.6579 14.7569 31.9927 13.1569 33.7005 12.0128 C35.4083 10.8521 37.3897 10.2718 39.6447 10.2718 C40.7888 10.2718 41.8665 10.4376 42.878 10.7692 C43.8894 11.0843 44.8013 11.5568 45.6138 12.1869 C46.4428 12.817 47.1392 13.6211 47.703 14.5994 L47.7527 14.5994 L47.7527 2.84217e-14 L53.0005 2.84217e-14 L53.0005 37.0581 L47.8522 37.0581 L47.8522 33.0538 L47.8025 33.0538 C47.2055 34.0653 46.4926 34.9109 45.6635 35.5907 C44.8345 36.2539 43.9143 36.7514 42.9028 37.083 C41.8914 37.4146 40.8136 37.5804 39.6696 37.5804 L39.6696 37.5804 M40.739 33.0538 C42.2313 33.0538 43.5246 32.6808 44.6189 31.9346 C45.7299 31.1719 46.5838 30.1025 47.1807 28.7262 C47.7942 27.35 48.1009 25.75 48.1009 23.9261 C48.1009 22.0691 47.7942 20.4607 47.1807 19.1011 C46.5838 17.7249 45.7299 16.6637 44.6189 15.9176 C43.5246 15.1549 42.2313 14.7735 40.739 14.7735 C39.3297 14.7735 38.0861 15.1217 37.0084 15.8181 C35.9472 16.5145 35.1099 17.5425 34.4964 18.9021 C33.8995 20.2618 33.601 21.9364 33.601 23.9261 C33.601 25.8992 33.8995 27.5656 34.4964 28.9252 C35.1099 30.2683 35.9472 31.2963 37.0084 32.0093 C38.0861 32.7056 39.3297 33.0538 40.739 33.0538 " transform="translate(27.3459, 40.7155)" style="fill:#fffdf8; fill-rule:nonzero;stroke:none;"/>
  <path d="M27.6642 0 L6 22 C6 22 4 24 2 24 L0 24 C2.12178 24 4 22.166 4 20 L4 8.00001 C4 3.58173 7.58172 1e-05 12 1e-05 L27.6642 0 Z" transform="translate(88.3465, 88.1575)" style="fill:url(#Grad5); fill-rule:nonzero;stroke:none;"/>
 </g>
</svg>
